<?xml version="1.0" encoding="UTF-8"?>
<svg xmlns="http://www.w3.org/2000/svg" xmlns:xlink="http://www.w3.org/1999/xlink" width="175px" height="38px" viewBox="0 0 177 38" version="1.1">
<defs>
<clipPath id="clip1">
  <path d="M 47.449219 0 L 176.722656 0 L 176.722656 23.921875 L 47.449219 23.921875 Z M 47.449219 0 "/>
</clipPath>
<clipPath id="clip2">
  <path d="M 47.449219 29.570312 L 123.347656 29.570312 L 123.347656 37.996094 L 47.449219 37.996094 Z M 47.449219 29.570312 "/>
</clipPath>
<clipPath id="clip3">
  <path d="M 0.0585938 0.929688 L 36.160156 0.929688 L 36.160156 37.0625 L 0.0585938 37.0625 Z M 0.0585938 0.929688 "/>
</clipPath>
<clipPath id="clip4">
  <path d="M 8.628906 9.664062 L 27.59375 9.664062 L 27.59375 28.332031 L 8.628906 28.332031 Z M 8.628906 9.664062 "/>
</clipPath>
</defs>
<g id="surface1">
<g clip-path="url(#clip1)" clip-rule="nonzero">
<path style=" stroke:none;fill-rule:nonzero;fill:rgb(1.568627%,30.588235%,32.54902%);fill-opacity:1;" d="M 49.699219 23.648438 C 49.394531 23.648438 49.191406 23.605469 49.09375 23.523438 C 48.992188 23.4375 48.941406 23.296875 48.941406 23.097656 C 48.941406 22.746094 49.066406 21.9375 49.316406 20.675781 C 49.570312 19.417969 49.949219 17.644531 50.453125 15.351562 C 50.773438 13.902344 51.0625 12.535156 51.324219 11.257812 C 51.582031 9.984375 51.710938 9.226562 51.710938 8.980469 C 51.710938 8.859375 51.582031 8.796875 51.324219 8.796875 C 51.171875 8.796875 50.804688 8.84375 50.226562 8.9375 C 49.402344 9.074219 48.789062 9.140625 48.394531 9.140625 C 48.042969 9.140625 47.796875 9.101562 47.660156 9.015625 C 47.523438 8.929688 47.453125 8.785156 47.453125 8.570312 C 47.453125 8.371094 47.496094 8.121094 47.582031 7.824219 C 47.664062 7.527344 47.753906 7.308594 47.84375 7.171875 C 48.394531 7.386719 49.085938 7.492188 49.925781 7.492188 C 50.644531 7.492188 51.675781 7.425781 53.019531 7.285156 C 53.199219 7.269531 53.679688 7.234375 54.460938 7.171875 C 55.238281 7.109375 55.933594 7.082031 56.542969 7.082031 C 58.34375 7.082031 59.691406 7.402344 60.585938 8.042969 C 61.476562 8.683594 61.921875 9.699219 61.921875 11.089844 C 61.921875 12.25 61.636719 13.273438 61.066406 14.160156 C 60.492188 15.046875 59.71875 15.730469 58.742188 16.207031 C 57.765625 16.691406 56.695312 16.933594 55.535156 16.933594 C 54.710938 16.933594 54.136719 16.824219 53.808594 16.613281 C 53.480469 16.398438 53.316406 16.144531 53.316406 15.855469 C 53.316406 15.71875 53.351562 15.585938 53.421875 15.453125 C 53.488281 15.324219 53.566406 15.222656 53.660156 15.144531 C 53.796875 15.253906 54.03125 15.347656 54.367188 15.433594 C 54.703125 15.515625 55.085938 15.558594 55.511719 15.558594 C 56.382812 15.558594 57.128906 15.375 57.757812 15.007812 C 58.382812 14.640625 58.859375 14.144531 59.191406 13.519531 C 59.515625 12.890625 59.679688 12.191406 59.679688 11.410156 C 59.679688 9.378906 58.542969 8.363281 56.269531 8.363281 C 55.65625 8.363281 55.105469 8.433594 54.609375 8.570312 C 54.113281 8.707031 53.828125 8.929688 53.75 9.234375 C 53.445312 10.5 52.953125 12.914062 52.277344 16.476562 C 51.59375 20.035156 51.253906 22.074219 51.253906 22.59375 C 51.253906 22.730469 51.261719 22.871094 51.277344 23.015625 C 51.292969 23.160156 51.300781 23.296875 51.300781 23.417969 C 50.691406 23.570312 50.15625 23.648438 49.699219 23.648438 Z M 76.507812 17.964844 C 76.78125 17.964844 76.917969 18.191406 76.917969 18.652344 C 76.917969 19.382812 76.625 20.152344 76.035156 20.953125 C 75.449219 21.753906 74.71875 22.425781 73.851562 22.960938 C 72.980469 23.492188 72.179688 23.761719 71.445312 23.761719 C 70.867188 23.761719 70.359375 23.59375 69.921875 23.257812 C 69.488281 22.921875 69.179688 22.484375 68.996094 21.949219 C 68.585938 22.46875 68.089844 22.886719 67.507812 23.199219 C 66.929688 23.511719 66.410156 23.667969 65.953125 23.667969 C 65.554688 23.667969 65.160156 23.550781 64.761719 23.3125 C 64.363281 23.078125 64.027344 22.777344 63.753906 22.410156 C 63.480469 22.042969 63.335938 21.675781 63.320312 21.308594 C 63.671875 19.75 63.984375 18.238281 64.257812 16.773438 C 64.320312 16.46875 64.578125 16.082031 65.035156 15.613281 C 65.496094 15.148438 66.042969 14.75 66.683594 14.414062 C 67.324219 14.078125 67.9375 13.910156 68.515625 13.910156 C 69.050781 13.910156 69.59375 14.070312 70.140625 14.390625 C 70.25 14.128906 70.332031 13.964844 70.394531 13.894531 C 70.453125 13.828125 70.546875 13.785156 70.667969 13.769531 L 72.660156 13.65625 L 72.730469 13.703125 C 72.546875 13.855469 72.40625 14.023438 72.316406 14.207031 C 72.226562 14.390625 72.140625 14.601562 72.066406 14.847656 C 71.789062 15.78125 71.507812 16.90625 71.21875 18.226562 C 70.925781 19.546875 70.78125 20.460938 70.78125 20.964844 C 70.78125 21.394531 70.886719 21.78125 71.089844 22.132812 C 71.296875 22.484375 71.621094 22.660156 72.066406 22.660156 C 72.523438 22.660156 73.050781 22.460938 73.652344 22.066406 C 74.257812 21.667969 74.824219 21.109375 75.347656 20.394531 C 75.875 19.675781 76.261719 18.867188 76.507812 17.964844 Z M 66.683594 22.292969 C 66.898438 22.292969 67.15625 22.1875 67.464844 21.972656 C 67.769531 21.761719 68.054688 21.46875 68.320312 21.101562 C 68.589844 20.738281 68.777344 20.332031 68.882812 19.890625 L 69.25 18.171875 C 69.523438 16.765625 69.714844 15.839844 69.820312 15.398438 C 69.425781 15.214844 69.003906 15.121094 68.5625 15.121094 C 67.84375 15.121094 67.304688 15.347656 66.945312 15.796875 C 66.589844 16.25 66.347656 16.757812 66.226562 17.324219 L 65.515625 20.78125 C 65.546875 21.164062 65.683594 21.511719 65.929688 21.824219 C 66.171875 22.136719 66.425781 22.292969 66.683594 22.292969 Z M 85.617188 17.757812 C 85.964844 17.757812 86.140625 18.011719 86.140625 18.515625 C 86.140625 18.773438 86.09375 19.039062 86.007812 19.316406 C 85.789062 19.988281 85.351562 20.660156 84.6875 21.332031 C 84.027344 22.003906 83.230469 22.558594 82.308594 22.996094 C 81.386719 23.429688 80.4375 23.648438 79.460938 23.648438 C 78.375 23.648438 77.546875 23.367188 76.972656 22.808594 C 76.402344 22.25 76.117188 21.484375 76.117188 20.507812 C 76.117188 19.667969 76.3125 18.171875 76.699219 16.015625 C 77.089844 13.863281 77.535156 11.628906 78.039062 9.3125 C 78.542969 7 78.941406 5.324219 79.230469 4.285156 C 80.019531 1.429688 81.113281 0 82.503906 0 C 83.191406 0 83.703125 0.3125 84.039062 0.9375 C 84.371094 1.566406 84.535156 2.359375 84.535156 3.324219 C 84.535156 5.246094 83.933594 7.550781 82.734375 10.226562 C 81.527344 12.910156 80.085938 15.445312 78.40625 17.828125 C 78.285156 18.804688 78.222656 19.574219 78.222656 20.140625 C 78.222656 20.996094 78.355469 21.585938 78.621094 21.90625 C 78.890625 22.226562 79.304688 22.386719 79.871094 22.386719 C 80.632812 22.386719 81.402344 22.164062 82.167969 21.722656 C 82.941406 21.277344 83.632812 20.703125 84.242188 19.988281 C 84.855469 19.28125 85.3125 18.535156 85.617188 17.757812 Z M 81.289062 4.582031 C 80.847656 6.21875 80.394531 8.03125 79.925781 10.023438 C 79.460938 12.015625 79.078125 13.847656 78.773438 15.511719 C 79.917969 13.511719 80.910156 11.363281 81.75 9.074219 C 82.589844 6.78125 83.007812 4.871094 83.007812 3.34375 C 83.007812 2.871094 82.960938 2.480469 82.871094 2.175781 C 82.777344 1.871094 82.648438 1.71875 82.476562 1.71875 C 82.324219 1.71875 82.167969 1.90625 82.007812 2.277344 C 81.851562 2.652344 81.609375 3.421875 81.289062 4.582031 Z M 101.523438 17.894531 C 101.707031 17.894531 101.851562 17.945312 101.957031 18.042969 C 102.066406 18.144531 102.117188 18.292969 102.117188 18.492188 C 102.117188 18.949219 101.875 19.589844 101.386719 20.414062 C 100.898438 21.242188 100.257812 21.964844 99.464844 22.59375 C 98.667969 23.21875 97.824219 23.53125 96.921875 23.53125 C 96.113281 23.53125 95.414062 23.28125 94.828125 22.785156 C 94.242188 22.289062 93.945312 21.683594 93.945312 20.964844 C 93.945312 20.570312 94.035156 20.058594 94.210938 19.429688 C 94.386719 18.804688 94.609375 18.078125 94.882812 17.253906 C 95.128906 16.460938 95.265625 16 95.296875 15.878906 C 95.296875 15.832031 95.265625 15.789062 95.203125 15.75 C 95.144531 15.714844 95.082031 15.695312 95.023438 15.695312 C 94.730469 15.695312 94.226562 16.195312 93.511719 17.195312 C 92.792969 18.195312 92.25 19.046875 91.886719 19.75 C 91.734375 20.238281 91.457031 21.339844 91.0625 23.050781 C 91 23.308594 90.953125 23.484375 90.914062 23.578125 C 90.875 23.667969 90.816406 23.714844 90.742188 23.714844 C 90.648438 23.714844 90.464844 23.675781 90.183594 23.589844 C 89.898438 23.507812 89.648438 23.402344 89.425781 23.28125 C 89.203125 23.15625 89.09375 23.035156 89.09375 22.914062 C 89.09375 22.714844 89.160156 22.363281 89.296875 21.859375 C 89.648438 20.574219 89.925781 19.539062 90.121094 18.753906 C 90.320312 17.96875 90.535156 17.007812 90.765625 15.878906 C 90.671875 15.757812 90.558594 15.695312 90.421875 15.695312 C 90.191406 15.695312 89.859375 15.933594 89.425781 16.414062 C 88.992188 16.898438 88.523438 17.53125 88.03125 18.316406 C 87.53125 19.105469 87.085938 19.925781 86.6875 20.78125 C 86.414062 21.773438 86.183594 22.746094 86.003906 23.691406 C 85.804688 23.691406 85.441406 23.640625 84.917969 23.53125 C 84.390625 23.425781 84.125 23.308594 84.125 23.1875 C 84.125 23.082031 84.199219 22.746094 84.355469 22.179688 L 84.46875 21.585938 C 84.527344 21.277344 84.726562 20.359375 85.0625 18.820312 C 85.398438 17.289062 85.765625 15.773438 86.164062 14.273438 C 86.191406 14.136719 86.230469 14.039062 86.277344 13.976562 C 86.324219 13.917969 86.390625 13.886719 86.484375 13.886719 C 86.605469 13.886719 86.925781 13.933594 87.445312 14.03125 C 87.964844 14.132812 88.246094 14.207031 88.292969 14.253906 C 88 15.503906 87.679688 16.796875 87.328125 18.125 C 87.816406 17.222656 88.3125 16.480469 88.808594 15.902344 C 89.304688 15.320312 89.753906 14.90625 90.160156 14.652344 C 90.5625 14.398438 90.878906 14.273438 91.105469 14.273438 C 91.304688 14.273438 91.652344 14.371094 92.152344 14.558594 C 92.644531 14.75 92.894531 14.902344 92.894531 15.007812 C 92.769531 15.742188 92.578125 16.613281 92.320312 17.621094 C 93.921875 15.222656 95.082031 14.023438 95.800781 14.023438 C 96.074219 14.023438 96.441406 14.109375 96.898438 14.285156 C 97.355469 14.460938 97.585938 14.65625 97.585938 14.871094 C 97.417969 15.40625 97.339844 15.65625 97.355469 15.625 C 96.945312 16.941406 96.628906 18.015625 96.410156 18.859375 C 96.1875 19.699219 96.074219 20.378906 96.074219 20.898438 C 96.074219 21.84375 96.519531 22.316406 97.402344 22.316406 C 98.257812 22.316406 99.066406 21.914062 99.828125 21.101562 C 100.59375 20.292969 101.15625 19.222656 101.523438 17.894531 Z M 113.566406 17.964844 C 113.839844 17.964844 113.976562 18.191406 113.976562 18.652344 C 113.976562 19.382812 113.683594 20.152344 113.097656 20.953125 C 112.507812 21.753906 111.78125 22.425781 110.910156 22.960938 C 110.039062 23.492188 109.238281 23.761719 108.507812 23.761719 C 107.925781 23.761719 107.417969 23.59375 106.984375 23.257812 C 106.550781 22.921875 106.238281 22.484375 106.054688 21.949219 C 105.644531 22.46875 105.148438 22.886719 104.566406 23.199219 C 103.988281 23.511719 103.46875 23.667969 103.011719 23.667969 C 102.613281 23.667969 102.21875 23.550781 101.820312 23.3125 C 101.425781 23.078125 101.089844 22.777344 100.8125 22.410156 C 100.539062 22.042969 100.394531 21.675781 100.378906 21.308594 C 100.730469 19.75 101.042969 18.238281 101.316406 16.773438 C 101.378906 16.46875 101.636719 16.082031 102.097656 15.613281 C 102.554688 15.148438 103.101562 14.75 103.746094 14.414062 C 104.386719 14.078125 104.996094 13.910156 105.574219 13.910156 C 106.109375 13.910156 106.652344 14.070312 107.199219 14.390625 C 107.308594 14.128906 107.390625 13.964844 107.453125 13.894531 C 107.515625 13.828125 107.605469 13.785156 107.726562 13.769531 L 109.71875 13.65625 L 109.789062 13.703125 C 109.605469 13.855469 109.46875 14.023438 109.375 14.207031 C 109.285156 14.390625 109.199219 14.601562 109.125 14.847656 C 108.847656 15.78125 108.566406 16.90625 108.277344 18.226562 C 107.988281 19.546875 107.84375 20.460938 107.84375 20.964844 C 107.84375 21.394531 107.945312 21.78125 108.148438 22.132812 C 108.355469 22.484375 108.679688 22.660156 109.125 22.660156 C 109.582031 22.660156 110.113281 22.460938 110.710938 22.066406 C 111.316406 21.667969 111.882812 21.109375 112.410156 20.394531 C 112.9375 19.675781 113.320312 18.867188 113.566406 17.964844 Z M 103.746094 22.292969 C 103.957031 22.292969 104.21875 22.1875 104.523438 21.972656 C 104.828125 21.761719 105.113281 21.46875 105.378906 21.101562 C 105.648438 20.738281 105.835938 20.332031 105.941406 19.890625 L 106.308594 18.171875 C 106.582031 16.765625 106.773438 15.839844 106.878906 15.398438 C 106.484375 15.214844 106.0625 15.121094 105.621094 15.121094 C 104.902344 15.121094 104.367188 15.347656 104.003906 15.796875 C 103.648438 16.25 103.410156 16.757812 103.285156 17.324219 L 102.578125 20.78125 C 102.605469 21.164062 102.746094 21.511719 102.988281 21.824219 C 103.234375 22.136719 103.484375 22.292969 103.746094 22.292969 Z M 123.5 15.304688 C 123.621094 15.382812 123.683594 15.480469 123.683594 15.605469 C 123.683594 15.941406 123.546875 16.277344 123.273438 16.613281 C 122.996094 16.949219 122.617188 17.222656 122.128906 17.4375 C 121.640625 17.652344 121.105469 17.757812 120.523438 17.757812 C 119.714844 17.757812 119.066406 17.550781 118.578125 17.140625 C 118.089844 16.726562 117.832031 16.199219 117.800781 15.558594 C 117.128906 15.621094 116.535156 15.894531 116.023438 16.382812 C 115.515625 16.871094 115.128906 17.46875 114.871094 18.171875 L 114.871094 18.214844 C 114.808594 18.367188 114.769531 18.484375 114.753906 18.558594 C 114.617188 19.046875 114.320312 20.613281 113.863281 23.257812 C 113.847656 23.410156 113.519531 23.484375 112.878906 23.484375 C 112.269531 23.484375 111.960938 23.378906 111.960938 23.164062 C 111.960938 23.042969 112.007812 22.730469 112.101562 22.226562 C 112.375 20.683594 112.671875 19.078125 112.992188 17.414062 C 113.3125 15.75 113.511719 14.785156 113.589844 14.527344 C 113.648438 14.296875 113.757812 14.144531 113.917969 14.070312 C 114.078125 13.992188 114.296875 13.953125 114.574219 13.953125 C 115.089844 13.953125 115.535156 14.03125 115.902344 14.183594 C 115.777344 14.535156 115.609375 15.160156 115.398438 16.0625 C 115.824219 15.453125 116.308594 14.960938 116.847656 14.597656 C 117.390625 14.230469 117.945312 14.046875 118.511719 14.046875 C 118.769531 14.046875 118.992188 14.078125 119.175781 14.148438 C 119.355469 14.21875 119.472656 14.296875 119.515625 14.390625 C 119.515625 15.949219 120.089844 16.726562 121.234375 16.726562 C 122.148438 16.726562 122.90625 16.253906 123.5 15.304688 Z M 132.316406 18.238281 C 132.570312 18.359375 132.699219 18.535156 132.699219 18.765625 C 132.699219 19.453125 132.300781 20.175781 131.5 20.929688 C 130.695312 21.6875 129.703125 22.320312 128.523438 22.832031 C 127.339844 23.34375 126.246094 23.601562 125.242188 23.601562 C 124.414062 23.601562 123.710938 23.433594 123.128906 23.097656 C 122.554688 22.761719 122.113281 22.382812 121.816406 21.960938 C 121.515625 21.542969 121.367188 21.234375 121.367188 21.035156 C 121.472656 20.636719 121.578125 20.164062 121.679688 19.613281 C 121.777344 19.0625 121.847656 18.683594 121.898438 18.46875 C 121.945312 18.191406 122 17.867188 122.066406 17.492188 C 122.136719 17.121094 122.222656 16.6875 122.328125 16.199219 C 122.394531 15.894531 122.660156 15.554688 123.128906 15.179688 C 123.605469 14.804688 124.144531 14.492188 124.746094 14.238281 C 125.347656 13.988281 125.847656 13.863281 126.25 13.863281 C 126.582031 13.863281 126.980469 13.953125 127.449219 14.136719 C 127.914062 14.320312 128.316406 14.574219 128.652344 14.902344 C 128.984375 15.234375 129.152344 15.621094 129.152344 16.0625 C 129.152344 16.628906 128.875 17.175781 128.316406 17.710938 C 127.757812 18.246094 127.054688 18.683594 126.203125 19.027344 C 125.34375 19.371094 124.503906 19.558594 123.683594 19.589844 L 123.5 20.554688 C 123.546875 21.027344 123.765625 21.433594 124.160156 21.777344 C 124.558594 22.121094 125.15625 22.292969 125.945312 22.292969 C 126.710938 22.292969 127.507812 22.117188 128.339844 21.769531 C 129.175781 21.417969 129.945312 20.929688 130.652344 20.308594 C 131.359375 19.691406 131.914062 19.003906 132.316406 18.238281 Z M 126.042969 14.824219 C 125.660156 14.824219 125.289062 15.007812 124.929688 15.375 C 124.570312 15.742188 124.34375 16.109375 124.257812 16.476562 L 123.867188 18.558594 C 124.78125 18.5 125.5625 18.230469 126.203125 17.757812 C 126.84375 17.285156 127.164062 16.726562 127.164062 16.085938 C 127.164062 15.703125 127.050781 15.398438 126.828125 15.167969 C 126.609375 14.941406 126.347656 14.824219 126.042969 14.824219 Z M 133.363281 23.785156 C 132.796875 23.785156 132.28125 23.683594 131.804688 23.484375 C 131.332031 23.289062 130.960938 23.03125 130.683594 22.714844 C 130.410156 22.40625 130.273438 22.082031 130.273438 21.746094 C 130.273438 21.4375 130.378906 21.199219 130.59375 21.019531 C 130.808594 20.847656 131.050781 20.746094 131.324219 20.714844 C 131.507812 21.324219 131.785156 21.804688 132.148438 22.15625 C 132.515625 22.507812 132.964844 22.683594 133.5 22.683594 C 134.050781 22.683594 134.5 22.511719 134.851562 22.167969 C 135.203125 21.824219 135.378906 21.425781 135.378906 20.964844 C 135.378906 20.582031 135.261719 20.25 135.035156 19.964844 C 134.804688 19.6875 134.4375 19.347656 133.9375 18.949219 C 133.417969 18.535156 133.027344 18.171875 132.769531 17.847656 C 132.507812 17.527344 132.378906 17.148438 132.378906 16.703125 C 132.378906 16.214844 132.542969 15.757812 132.875 15.328125 C 133.199219 14.902344 133.621094 14.5625 134.132812 14.308594 C 134.640625 14.054688 135.148438 13.929688 135.652344 13.929688 C 136.21875 13.929688 136.757812 14.0625 137.277344 14.328125 C 137.796875 14.597656 138.054688 14.910156 138.054688 15.261719 C 138.054688 15.429688 137.996094 15.597656 137.875 15.765625 C 137.75 15.933594 137.566406 16.070312 137.324219 16.175781 C 137.109375 15.808594 136.886719 15.535156 136.652344 15.351562 C 136.414062 15.167969 136.125 15.078125 135.789062 15.078125 C 135.421875 15.078125 135.101562 15.179688 134.828125 15.382812 C 134.554688 15.589844 134.417969 15.878906 134.417969 16.246094 C 134.417969 16.566406 134.53125 16.859375 134.761719 17.125 C 134.988281 17.394531 135.339844 17.71875 135.8125 18.101562 C 136.378906 18.558594 136.800781 18.960938 137.085938 19.300781 C 137.367188 19.648438 137.507812 20.058594 137.507812 20.53125 C 137.507812 21.066406 137.3125 21.585938 136.925781 22.089844 C 136.535156 22.59375 136.023438 23 135.390625 23.3125 C 134.757812 23.625 134.082031 23.785156 133.363281 23.785156 Z M 151.355469 21.628906 C 152.992188 21.628906 153.808594 21.867188 153.808594 22.339844 C 153.808594 22.476562 153.753906 22.707031 153.648438 23.027344 C 153.539062 23.347656 153.441406 23.5625 153.347656 23.667969 C 152.738281 23.457031 151.546875 23.347656 149.777344 23.347656 C 148.542969 23.347656 147.257812 23.417969 145.929688 23.554688 L 145.382812 23.601562 C 145.261719 23.492188 145.152344 23.332031 145.0625 23.121094 C 144.96875 22.90625 144.925781 22.738281 144.925781 22.617188 C 144.925781 22.460938 145.09375 22.234375 145.429688 21.929688 C 146.265625 21.164062 146.925781 20.53125 147.40625 20.027344 C 147.886719 19.523438 148.929688 18.382812 150.53125 16.613281 C 151.21875 15.863281 151.75 15.171875 152.121094 14.535156 C 152.496094 13.902344 152.683594 13.25 152.683594 12.578125 C 152.683594 12.015625 152.53125 11.570312 152.226562 11.25 C 151.921875 10.929688 151.472656 10.769531 150.875 10.769531 C 149.578125 10.769531 148.570312 11.59375 147.855469 13.242188 C 147.625 13.214844 147.457031 13.128906 147.351562 12.992188 C 147.246094 12.855469 147.191406 12.648438 147.191406 12.375 C 147.191406 11.824219 147.375 11.304688 147.75 10.816406 C 148.125 10.328125 148.636719 9.933594 149.28125 9.632812 C 149.933594 9.335938 150.648438 9.1875 151.425781 9.1875 C 152.539062 9.1875 153.421875 9.492188 154.066406 10.105469 C 154.71875 10.714844 155.042969 11.496094 155.042969 12.441406 C 155.042969 13.054688 154.902344 13.636719 154.617188 14.191406 C 154.335938 14.75 153.996094 15.246094 153.601562 15.683594 C 153.203125 16.117188 152.675781 16.644531 152.019531 17.253906 L 146.917969 22.066406 C 147.816406 21.929688 148.609375 21.820312 149.296875 21.746094 C 149.984375 21.667969 150.671875 21.628906 151.355469 21.628906 Z M 159.964844 23.828125 C 158.835938 23.828125 157.933594 23.382812 157.265625 22.488281 C 156.59375 21.59375 156.257812 20.40625 156.257812 18.925781 C 156.257812 17.519531 156.554688 16.070312 157.148438 14.574219 C 157.746094 13.074219 158.554688 11.832031 159.585938 10.839844 C 160.617188 9.84375 161.742188 9.347656 162.964844 9.347656 C 163.101562 9.347656 163.246094 9.316406 163.398438 9.257812 C 163.550781 9.195312 163.710938 9.164062 163.878906 9.164062 C 164.6875 9.164062 165.324219 9.617188 165.789062 10.515625 C 166.257812 11.417969 166.488281 12.542969 166.488281 13.886719 C 166.488281 15.382812 166.203125 16.90625 165.628906 18.453125 C 165.058594 20.007812 164.273438 21.289062 163.269531 22.304688 C 162.273438 23.320312 161.171875 23.828125 159.964844 23.828125 Z M 160.171875 22.523438 C 161.070312 22.523438 161.84375 22.035156 162.484375 21.058594 C 163.125 20.078125 163.609375 18.851562 163.933594 17.378906 C 164.265625 15.90625 164.429688 14.457031 164.429688 13.039062 C 164.429688 12.042969 164.324219 11.320312 164.117188 10.871094 C 163.914062 10.421875 163.558594 10.195312 163.054688 10.195312 C 162.109375 10.195312 161.285156 10.671875 160.582031 11.625 C 159.882812 12.582031 159.34375 13.777344 158.96875 15.207031 C 158.59375 16.632812 158.410156 18.015625 158.410156 19.363281 C 158.410156 20.386719 158.542969 21.167969 158.808594 21.707031 C 159.074219 22.25 159.53125 22.523438 160.171875 22.523438 Z M 173.558594 16.015625 C 174.308594 16.136719 174.949219 16.445312 175.480469 16.941406 C 176.015625 17.441406 176.285156 18.179688 176.285156 19.15625 C 176.285156 20.117188 176.011719 20.957031 175.472656 21.675781 C 174.929688 22.394531 174.214844 22.945312 173.332031 23.335938 C 172.445312 23.726562 171.492188 23.921875 170.46875 23.921875 C 169.398438 23.921875 168.542969 23.714844 167.894531 23.304688 C 167.246094 22.890625 166.921875 22.394531 166.921875 21.8125 C 166.921875 21.570312 166.972656 21.378906 167.082031 21.242188 C 167.1875 21.101562 167.308594 21.035156 167.445312 21.035156 C 167.722656 21.476562 168.132812 21.832031 168.683594 22.097656 C 169.230469 22.367188 169.84375 22.5 170.515625 22.5 C 171.199219 22.5 171.808594 22.355469 172.335938 22.066406 C 172.863281 21.773438 173.265625 21.382812 173.550781 20.882812 C 173.832031 20.386719 173.972656 19.835938 173.972656 19.222656 C 173.972656 17.636719 172.902344 16.839844 170.765625 16.839844 C 170.660156 16.839844 170.566406 16.746094 170.480469 16.550781 C 170.398438 16.363281 170.355469 16.144531 170.355469 15.902344 C 170.355469 15.550781 170.453125 15.375 170.652344 15.375 C 171.367188 15.375 172.03125 15.230469 172.632812 14.941406 C 173.234375 14.648438 173.707031 14.253906 174.054688 13.746094 C 174.394531 13.242188 174.566406 12.6875 174.566406 12.074219 C 174.566406 11.527344 174.414062 11.125 174.109375 10.871094 C 173.804688 10.621094 173.324219 10.496094 172.667969 10.496094 C 172.023438 10.496094 171.441406 10.613281 170.917969 10.847656 C 170.390625 11.085938 169.859375 11.457031 169.324219 11.960938 C 169.230469 11.945312 169.15625 11.882812 169.09375 11.777344 C 169.035156 11.671875 169.003906 11.554688 169.003906 11.433594 C 169.003906 11.144531 169.1875 10.824219 169.550781 10.480469 C 169.917969 10.136719 170.414062 9.84375 171.039062 9.601562 C 171.667969 9.355469 172.34375 9.234375 173.078125 9.234375 C 174.191406 9.234375 175.078125 9.515625 175.734375 10.082031 C 176.390625 10.648438 176.71875 11.371094 176.71875 12.257812 C 176.71875 13.128906 176.410156 13.917969 175.792969 14.617188 C 175.171875 15.320312 174.429688 15.789062 173.558594 16.015625 Z M 173.558594 16.015625 "/>
</g>
<g clip-path="url(#clip2)" clip-rule="nonzero">
<path style=" stroke:none;fill-rule:nonzero;fill:rgb(1.568627%,30.588235%,32.54902%);fill-opacity:1;" d="M 53.476562 32.152344 L 51.246094 37.90625 L 49.683594 37.90625 L 47.457031 32.152344 L 48.886719 32.152344 C 49.007812 32.152344 49.113281 32.183594 49.195312 32.242188 C 49.277344 32.296875 49.332031 32.371094 49.363281 32.453125 L 50.160156 35.035156 C 50.222656 35.246094 50.285156 35.449219 50.339844 35.648438 C 50.398438 35.847656 50.449219 36.046875 50.488281 36.246094 C 50.527344 36.046875 50.578125 35.847656 50.636719 35.648438 C 50.695312 35.449219 50.757812 35.246094 50.824219 35.035156 L 51.65625 32.453125 C 51.6875 32.371094 51.742188 32.296875 51.824219 32.242188 C 51.90625 32.183594 52 32.152344 52.113281 32.152344 Z M 58.953125 37.90625 L 58.164062 37.90625 C 58 37.90625 57.878906 37.886719 57.796875 37.839844 C 57.710938 37.796875 57.640625 37.703125 57.585938 37.5625 L 57.464844 37.246094 C 57.320312 37.371094 57.183594 37.476562 57.050781 37.566406 C 56.917969 37.660156 56.777344 37.742188 56.636719 37.804688 C 56.496094 37.871094 56.34375 37.917969 56.183594 37.949219 C 56.019531 37.980469 55.84375 37.996094 55.648438 37.996094 C 55.386719 37.996094 55.144531 37.960938 54.933594 37.894531 C 54.71875 37.824219 54.535156 37.722656 54.386719 37.589844 C 54.238281 37.457031 54.121094 37.292969 54.039062 37.09375 C 53.960938 36.898438 53.917969 36.667969 53.917969 36.410156 C 53.917969 36.207031 53.96875 35.996094 54.074219 35.78125 C 54.175781 35.566406 54.355469 35.371094 54.609375 35.199219 C 54.867188 35.023438 55.210938 34.875 55.640625 34.757812 C 56.074219 34.636719 56.621094 34.570312 57.277344 34.558594 L 57.277344 34.3125 C 57.277344 33.976562 57.207031 33.730469 57.070312 33.582031 C 56.929688 33.433594 56.734375 33.359375 56.480469 33.359375 C 56.273438 33.359375 56.109375 33.382812 55.980469 33.425781 C 55.851562 33.46875 55.734375 33.519531 55.632812 33.574219 C 55.53125 33.628906 55.433594 33.679688 55.335938 33.726562 C 55.242188 33.769531 55.128906 33.792969 54.992188 33.792969 C 54.875 33.792969 54.773438 33.761719 54.691406 33.703125 C 54.609375 33.648438 54.542969 33.578125 54.496094 33.492188 L 54.183594 32.953125 C 54.53125 32.648438 54.917969 32.417969 55.339844 32.269531 C 55.761719 32.117188 56.214844 32.042969 56.699219 32.042969 C 57.046875 32.042969 57.363281 32.101562 57.640625 32.214844 C 57.917969 32.328125 58.15625 32.484375 58.351562 32.683594 C 58.542969 32.886719 58.691406 33.125 58.796875 33.402344 C 58.898438 33.679688 58.953125 33.984375 58.953125 34.3125 Z M 56.191406 36.859375 C 56.414062 36.859375 56.605469 36.820312 56.773438 36.742188 C 56.9375 36.664062 57.109375 36.539062 57.277344 36.367188 L 57.277344 35.566406 C 56.933594 35.582031 56.648438 35.609375 56.429688 35.65625 C 56.207031 35.699219 56.03125 35.753906 55.902344 35.820312 C 55.773438 35.886719 55.683594 35.964844 55.632812 36.046875 C 55.585938 36.132812 55.558594 36.226562 55.558594 36.324219 C 55.558594 36.523438 55.613281 36.660156 55.71875 36.742188 C 55.828125 36.820312 55.984375 36.859375 56.191406 36.859375 Z M 64.769531 32.914062 L 64.316406 33.519531 C 64.265625 33.582031 64.214844 33.632812 64.164062 33.667969 C 64.117188 33.707031 64.050781 33.726562 63.960938 33.726562 C 63.875 33.726562 63.800781 33.703125 63.730469 33.664062 C 63.664062 33.621094 63.585938 33.578125 63.5 33.527344 C 63.417969 33.476562 63.316406 33.433594 63.203125 33.390625 C 63.085938 33.351562 62.945312 33.328125 62.773438 33.328125 C 62.5625 33.328125 62.382812 33.371094 62.226562 33.449219 C 62.074219 33.523438 61.949219 33.636719 61.847656 33.78125 C 61.75 33.925781 61.675781 34.101562 61.628906 34.3125 C 61.578125 34.519531 61.554688 34.753906 61.554688 35.015625 C 61.554688 35.566406 61.660156 35.992188 61.875 36.289062 C 62.085938 36.582031 62.378906 36.730469 62.753906 36.730469 C 62.953125 36.730469 63.109375 36.707031 63.226562 36.65625 C 63.34375 36.605469 63.441406 36.550781 63.523438 36.488281 C 63.605469 36.429688 63.679688 36.371094 63.746094 36.320312 C 63.816406 36.269531 63.902344 36.242188 64.007812 36.242188 C 64.140625 36.242188 64.246094 36.292969 64.316406 36.390625 L 64.816406 37.007812 C 64.636719 37.210938 64.449219 37.378906 64.253906 37.507812 C 64.058594 37.632812 63.859375 37.734375 63.652344 37.804688 C 63.449219 37.878906 63.242188 37.925781 63.035156 37.953125 C 62.828125 37.984375 62.628906 37.996094 62.433594 37.996094 C 62.082031 37.996094 61.746094 37.929688 61.425781 37.796875 C 61.105469 37.664062 60.824219 37.46875 60.582031 37.21875 C 60.339844 36.964844 60.148438 36.652344 60.007812 36.28125 C 59.863281 35.910156 59.792969 35.488281 59.792969 35.015625 C 59.792969 34.601562 59.855469 34.214844 59.976562 33.855469 C 60.101562 33.496094 60.285156 33.183594 60.527344 32.917969 C 60.769531 32.652344 61.070312 32.445312 61.425781 32.292969 C 61.78125 32.140625 62.195312 32.066406 62.664062 32.066406 C 63.113281 32.066406 63.511719 32.136719 63.851562 32.28125 C 64.191406 32.425781 64.496094 32.636719 64.769531 32.914062 Z M 70.3125 37.90625 L 69.523438 37.90625 C 69.363281 37.90625 69.238281 37.886719 69.15625 37.839844 C 69.074219 37.796875 69.003906 37.703125 68.949219 37.5625 L 68.824219 37.246094 C 68.683594 37.371094 68.542969 37.476562 68.410156 37.566406 C 68.277344 37.660156 68.140625 37.742188 68 37.804688 C 67.855469 37.871094 67.703125 37.917969 67.542969 37.949219 C 67.382812 37.980469 67.203125 37.996094 67.007812 37.996094 C 66.746094 37.996094 66.507812 37.960938 66.292969 37.894531 C 66.078125 37.824219 65.898438 37.722656 65.75 37.589844 C 65.597656 37.457031 65.480469 37.292969 65.402344 37.09375 C 65.320312 36.898438 65.277344 36.667969 65.277344 36.410156 C 65.277344 36.207031 65.332031 35.996094 65.433594 35.78125 C 65.539062 35.566406 65.71875 35.371094 65.972656 35.199219 C 66.226562 35.023438 66.570312 34.875 67.003906 34.757812 C 67.433594 34.636719 67.980469 34.570312 68.636719 34.558594 L 68.636719 34.3125 C 68.636719 33.976562 68.570312 33.730469 68.429688 33.582031 C 68.292969 33.433594 68.09375 33.359375 67.839844 33.359375 C 67.636719 33.359375 67.46875 33.382812 67.339844 33.425781 C 67.210938 33.46875 67.097656 33.519531 66.996094 33.574219 C 66.894531 33.628906 66.792969 33.679688 66.699219 33.726562 C 66.601562 33.769531 66.488281 33.792969 66.355469 33.792969 C 66.234375 33.792969 66.136719 33.761719 66.050781 33.703125 C 65.96875 33.648438 65.902344 33.578125 65.855469 33.492188 L 65.542969 32.953125 C 65.890625 32.648438 66.277344 32.417969 66.703125 32.269531 C 67.125 32.117188 67.578125 32.042969 68.0625 32.042969 C 68.410156 32.042969 68.722656 32.101562 69 32.214844 C 69.28125 32.328125 69.515625 32.484375 69.710938 32.683594 C 69.902344 32.886719 70.050781 33.125 70.15625 33.402344 C 70.257812 33.679688 70.3125 33.984375 70.3125 34.3125 Z M 67.550781 36.859375 C 67.773438 36.859375 67.96875 36.820312 68.132812 36.742188 C 68.300781 36.664062 68.46875 36.539062 68.636719 36.367188 L 68.636719 35.566406 C 68.292969 35.582031 68.011719 35.609375 67.789062 35.65625 C 67.570312 35.699219 67.394531 35.753906 67.261719 35.820312 C 67.132812 35.886719 67.046875 35.964844 66.996094 36.046875 C 66.945312 36.132812 66.917969 36.226562 66.917969 36.324219 C 66.917969 36.523438 66.972656 36.660156 67.082031 36.742188 C 67.1875 36.820312 67.34375 36.859375 67.550781 36.859375 Z M 73.546875 37.996094 C 73.273438 37.996094 73.035156 37.957031 72.824219 37.875 C 72.617188 37.796875 72.441406 37.683594 72.296875 37.539062 C 72.15625 37.394531 72.046875 37.214844 71.972656 37.007812 C 71.898438 36.800781 71.863281 36.570312 71.863281 36.316406 L 71.863281 33.339844 L 71.375 33.339844 C 71.285156 33.339844 71.210938 33.3125 71.148438 33.257812 C 71.085938 33.199219 71.054688 33.113281 71.054688 33.003906 L 71.054688 32.332031 L 71.96875 32.152344 L 72.308594 30.75 C 72.351562 30.574219 72.476562 30.484375 72.683594 30.484375 L 73.582031 30.484375 L 73.582031 32.164062 L 74.976562 32.164062 L 74.976562 33.339844 L 73.582031 33.339844 L 73.582031 36.199219 C 73.582031 36.332031 73.613281 36.441406 73.679688 36.53125 C 73.742188 36.617188 73.835938 36.660156 73.957031 36.660156 C 74.023438 36.660156 74.074219 36.652344 74.117188 36.640625 C 74.160156 36.628906 74.195312 36.613281 74.226562 36.597656 C 74.257812 36.578125 74.289062 36.5625 74.316406 36.550781 C 74.34375 36.539062 74.375 36.53125 74.414062 36.53125 C 74.464844 36.53125 74.507812 36.542969 74.535156 36.566406 C 74.570312 36.589844 74.601562 36.628906 74.632812 36.679688 L 75.15625 37.496094 C 74.933594 37.664062 74.683594 37.789062 74.410156 37.871094 C 74.128906 37.953125 73.84375 37.996094 73.546875 37.996094 Z M 76.019531 32.152344 L 77.738281 32.152344 L 77.738281 37.90625 L 76.019531 37.90625 Z M 77.9375 30.582031 C 77.9375 30.714844 77.910156 30.84375 77.855469 30.964844 C 77.800781 31.085938 77.722656 31.191406 77.628906 31.28125 C 77.53125 31.371094 77.417969 31.445312 77.292969 31.496094 C 77.164062 31.550781 77.027344 31.578125 76.886719 31.578125 C 76.746094 31.578125 76.613281 31.550781 76.488281 31.496094 C 76.367188 31.445312 76.261719 31.371094 76.167969 31.28125 C 76.070312 31.191406 75.996094 31.085938 75.945312 30.964844 C 75.890625 30.84375 75.863281 30.714844 75.863281 30.582031 C 75.863281 30.4375 75.890625 30.308594 75.945312 30.1875 C 75.996094 30.0625 76.070312 29.957031 76.167969 29.863281 C 76.261719 29.769531 76.367188 29.699219 76.488281 29.644531 C 76.613281 29.59375 76.746094 29.570312 76.886719 29.570312 C 77.027344 29.570312 77.164062 29.59375 77.292969 29.644531 C 77.417969 29.699219 77.53125 29.769531 77.628906 29.863281 C 77.722656 29.957031 77.800781 30.0625 77.855469 30.1875 C 77.910156 30.308594 77.9375 30.4375 77.9375 30.582031 Z M 81.683594 32.066406 C 82.121094 32.066406 82.515625 32.132812 82.875 32.273438 C 83.234375 32.40625 83.542969 32.605469 83.796875 32.859375 C 84.054688 33.113281 84.253906 33.425781 84.394531 33.789062 C 84.539062 34.152344 84.609375 34.5625 84.609375 35.015625 C 84.609375 35.476562 84.539062 35.886719 84.394531 36.257812 C 84.253906 36.625 84.054688 36.9375 83.796875 37.195312 C 83.542969 37.453125 83.234375 37.648438 82.875 37.789062 C 82.515625 37.925781 82.121094 37.996094 81.683594 37.996094 C 81.246094 37.996094 80.84375 37.925781 80.484375 37.789062 C 80.125 37.648438 79.8125 37.453125 79.550781 37.195312 C 79.292969 36.9375 79.089844 36.625 78.949219 36.257812 C 78.808594 35.886719 78.734375 35.476562 78.734375 35.015625 C 78.734375 34.5625 78.808594 34.152344 78.949219 33.789062 C 79.089844 33.425781 79.292969 33.113281 79.550781 32.859375 C 79.8125 32.605469 80.125 32.40625 80.484375 32.273438 C 80.84375 32.132812 81.246094 32.066406 81.683594 32.066406 Z M 81.683594 36.71875 C 82.078125 36.71875 82.371094 36.582031 82.554688 36.300781 C 82.742188 36.023438 82.835938 35.597656 82.835938 35.027344 C 82.835938 34.460938 82.742188 34.035156 82.554688 33.757812 C 82.371094 33.480469 82.078125 33.339844 81.683594 33.339844 C 81.277344 33.339844 80.980469 33.480469 80.792969 33.757812 C 80.605469 34.035156 80.507812 34.460938 80.507812 35.027344 C 80.507812 35.597656 80.605469 36.023438 80.792969 36.300781 C 80.980469 36.582031 81.277344 36.71875 81.683594 36.71875 Z M 87.269531 37.90625 L 85.550781 37.90625 L 85.550781 32.152344 L 86.617188 32.152344 C 86.722656 32.152344 86.8125 32.179688 86.886719 32.226562 C 86.957031 32.273438 87.007812 32.347656 87.035156 32.441406 L 87.136719 32.773438 C 87.246094 32.671875 87.363281 32.574219 87.480469 32.488281 C 87.597656 32.398438 87.726562 32.324219 87.863281 32.261719 C 87.996094 32.203125 88.140625 32.152344 88.296875 32.117188 C 88.453125 32.082031 88.625 32.066406 88.808594 32.066406 C 89.125 32.066406 89.402344 32.121094 89.644531 32.230469 C 89.886719 32.339844 90.089844 32.492188 90.257812 32.683594 C 90.421875 32.878906 90.550781 33.109375 90.636719 33.378906 C 90.71875 33.648438 90.761719 33.9375 90.761719 34.25 L 90.761719 37.90625 L 89.042969 37.90625 L 89.042969 34.25 C 89.042969 33.96875 88.980469 33.75 88.851562 33.59375 C 88.71875 33.4375 88.53125 33.359375 88.277344 33.359375 C 88.089844 33.359375 87.914062 33.398438 87.746094 33.480469 C 87.582031 33.5625 87.421875 33.671875 87.269531 33.808594 Z M 95.839844 37.90625 L 94.121094 37.90625 L 94.121094 32.152344 L 95.140625 32.152344 C 95.222656 32.152344 95.296875 32.160156 95.351562 32.175781 C 95.410156 32.191406 95.457031 32.214844 95.496094 32.246094 C 95.535156 32.277344 95.566406 32.320312 95.585938 32.371094 C 95.605469 32.421875 95.625 32.484375 95.636719 32.558594 L 95.730469 33.097656 C 95.941406 32.773438 96.179688 32.515625 96.441406 32.328125 C 96.703125 32.136719 96.992188 32.042969 97.300781 32.042969 C 97.5625 32.042969 97.773438 32.105469 97.933594 32.230469 L 97.710938 33.496094 C 97.695312 33.574219 97.667969 33.628906 97.621094 33.660156 C 97.578125 33.691406 97.519531 33.707031 97.445312 33.707031 C 97.382812 33.707031 97.308594 33.699219 97.222656 33.683594 C 97.136719 33.667969 97.03125 33.660156 96.902344 33.660156 C 96.453125 33.660156 96.097656 33.898438 95.839844 34.378906 Z M 101.160156 32.066406 C 101.539062 32.066406 101.886719 32.125 102.203125 32.242188 C 102.519531 32.359375 102.789062 32.535156 103.015625 32.757812 C 103.246094 32.984375 103.421875 33.261719 103.550781 33.589844 C 103.675781 33.917969 103.742188 34.285156 103.742188 34.703125 C 103.742188 34.828125 103.734375 34.933594 103.722656 35.015625 C 103.714844 35.097656 103.695312 35.164062 103.664062 35.210938 C 103.632812 35.257812 103.59375 35.292969 103.542969 35.3125 C 103.496094 35.328125 103.429688 35.339844 103.355469 35.339844 L 100.039062 35.339844 C 100.09375 35.820312 100.238281 36.167969 100.476562 36.386719 C 100.710938 36.601562 101.019531 36.710938 101.390625 36.710938 C 101.589844 36.710938 101.761719 36.683594 101.90625 36.636719 C 102.050781 36.589844 102.179688 36.535156 102.292969 36.476562 C 102.402344 36.417969 102.507812 36.363281 102.601562 36.316406 C 102.695312 36.265625 102.796875 36.242188 102.898438 36.242188 C 103.035156 36.242188 103.140625 36.292969 103.210938 36.390625 L 103.707031 37.007812 C 103.53125 37.210938 103.339844 37.378906 103.132812 37.507812 C 102.929688 37.632812 102.71875 37.734375 102.503906 37.804688 C 102.285156 37.878906 102.070312 37.925781 101.851562 37.953125 C 101.636719 37.984375 101.433594 37.996094 101.238281 37.996094 C 100.832031 37.996094 100.453125 37.929688 100.101562 37.800781 C 99.75 37.667969 99.441406 37.472656 99.175781 37.214844 C 98.914062 36.953125 98.703125 36.632812 98.550781 36.246094 C 98.398438 35.863281 98.320312 35.414062 98.320312 34.90625 C 98.320312 34.519531 98.386719 34.15625 98.515625 33.8125 C 98.648438 33.46875 98.835938 33.167969 99.082031 32.910156 C 99.328125 32.648438 99.625 32.445312 99.976562 32.292969 C 100.324219 32.140625 100.71875 32.066406 101.160156 32.066406 Z M 101.191406 33.253906 C 100.863281 33.253906 100.605469 33.347656 100.421875 33.535156 C 100.234375 33.71875 100.113281 33.988281 100.054688 34.34375 L 102.199219 34.34375 C 102.199219 34.203125 102.183594 34.070312 102.148438 33.941406 C 102.113281 33.8125 102.054688 33.695312 101.976562 33.59375 C 101.898438 33.492188 101.792969 33.410156 101.664062 33.347656 C 101.535156 33.285156 101.378906 33.253906 101.191406 33.253906 Z M 106.445312 37.90625 L 104.726562 37.90625 L 104.726562 32.152344 L 105.789062 32.152344 C 105.898438 32.152344 105.988281 32.179688 106.0625 32.226562 C 106.132812 32.273438 106.183594 32.347656 106.210938 32.441406 L 106.3125 32.773438 C 106.421875 32.671875 106.535156 32.574219 106.65625 32.488281 C 106.773438 32.398438 106.902344 32.324219 107.035156 32.261719 C 107.171875 32.203125 107.316406 32.152344 107.472656 32.117188 C 107.628906 32.082031 107.800781 32.066406 107.984375 32.066406 C 108.300781 32.066406 108.578125 32.121094 108.820312 32.230469 C 109.0625 32.339844 109.265625 32.492188 109.433594 32.683594 C 109.597656 32.878906 109.722656 33.109375 109.808594 33.378906 C 109.894531 33.648438 109.9375 33.9375 109.9375 34.25 L 109.9375 37.90625 L 108.21875 37.90625 L 108.21875 34.25 C 108.21875 33.96875 108.152344 33.75 108.023438 33.59375 C 107.894531 33.4375 107.703125 33.359375 107.453125 33.359375 C 107.265625 33.359375 107.089844 33.398438 106.921875 33.480469 C 106.753906 33.5625 106.597656 33.671875 106.445312 33.808594 Z M 113.171875 37.996094 C 112.898438 37.996094 112.660156 37.957031 112.449219 37.875 C 112.242188 37.796875 112.066406 37.683594 111.921875 37.539062 C 111.78125 37.394531 111.671875 37.214844 111.597656 37.007812 C 111.523438 36.800781 111.488281 36.570312 111.488281 36.316406 L 111.488281 33.339844 L 111 33.339844 C 110.910156 33.339844 110.835938 33.3125 110.773438 33.257812 C 110.710938 33.199219 110.679688 33.113281 110.679688 33.003906 L 110.679688 32.332031 L 111.59375 32.152344 L 111.929688 30.75 C 111.976562 30.574219 112.101562 30.484375 112.308594 30.484375 L 113.207031 30.484375 L 113.207031 32.164062 L 114.601562 32.164062 L 114.601562 33.339844 L 113.207031 33.339844 L 113.207031 36.199219 C 113.207031 36.332031 113.238281 36.441406 113.304688 36.53125 C 113.367188 36.617188 113.460938 36.660156 113.582031 36.660156 C 113.648438 36.660156 113.699219 36.652344 113.742188 36.640625 C 113.785156 36.628906 113.820312 36.613281 113.851562 36.597656 C 113.882812 36.578125 113.914062 36.5625 113.941406 36.550781 C 113.96875 36.539062 114 36.53125 114.039062 36.53125 C 114.089844 36.53125 114.132812 36.542969 114.160156 36.566406 C 114.195312 36.589844 114.226562 36.628906 114.257812 36.679688 L 114.78125 37.496094 C 114.558594 37.664062 114.308594 37.789062 114.035156 37.871094 C 113.753906 37.953125 113.46875 37.996094 113.171875 37.996094 Z M 120.34375 37.90625 L 119.558594 37.90625 C 119.394531 37.90625 119.273438 37.886719 119.191406 37.839844 C 119.105469 37.796875 119.035156 37.703125 118.980469 37.5625 L 118.859375 37.246094 C 118.714844 37.371094 118.574219 37.476562 118.441406 37.566406 C 118.308594 37.660156 118.171875 37.742188 118.03125 37.804688 C 117.890625 37.871094 117.738281 37.917969 117.574219 37.949219 C 117.414062 37.980469 117.238281 37.996094 117.042969 37.996094 C 116.777344 37.996094 116.539062 37.960938 116.324219 37.894531 C 116.113281 37.824219 115.929688 37.722656 115.78125 37.589844 C 115.632812 37.457031 115.515625 37.292969 115.433594 37.09375 C 115.351562 36.898438 115.3125 36.667969 115.3125 36.410156 C 115.3125 36.207031 115.363281 35.996094 115.46875 35.78125 C 115.570312 35.566406 115.75 35.371094 116.003906 35.199219 C 116.261719 35.023438 116.605469 34.875 117.035156 34.757812 C 117.46875 34.636719 118.011719 34.570312 118.671875 34.558594 L 118.671875 34.3125 C 118.671875 33.976562 118.601562 33.730469 118.464844 33.582031 C 118.324219 33.433594 118.128906 33.359375 117.875 33.359375 C 117.667969 33.359375 117.503906 33.382812 117.375 33.425781 C 117.246094 33.46875 117.128906 33.519531 117.027344 33.574219 C 116.925781 33.628906 116.828125 33.679688 116.730469 33.726562 C 116.636719 33.769531 116.519531 33.792969 116.386719 33.792969 C 116.269531 33.792969 116.167969 33.761719 116.085938 33.703125 C 116.003906 33.648438 115.9375 33.578125 115.890625 33.492188 L 115.578125 32.953125 C 115.925781 32.648438 116.3125 32.417969 116.734375 32.269531 C 117.15625 32.117188 117.609375 32.042969 118.09375 32.042969 C 118.441406 32.042969 118.753906 32.101562 119.035156 32.214844 C 119.3125 32.328125 119.550781 32.484375 119.746094 32.683594 C 119.9375 32.886719 120.085938 33.125 120.191406 33.402344 C 120.292969 33.679688 120.34375 33.984375 120.34375 34.3125 Z M 117.585938 36.859375 C 117.808594 36.859375 118 36.820312 118.164062 36.742188 C 118.332031 36.664062 118.5 36.539062 118.671875 36.367188 L 118.671875 35.566406 C 118.328125 35.582031 118.042969 35.609375 117.820312 35.65625 C 117.601562 35.699219 117.425781 35.753906 117.296875 35.820312 C 117.167969 35.886719 117.078125 35.964844 117.027344 36.046875 C 116.976562 36.132812 116.953125 36.226562 116.953125 36.324219 C 116.953125 36.523438 117.007812 36.660156 117.113281 36.742188 C 117.21875 36.820312 117.378906 36.859375 117.585938 36.859375 Z M 121.621094 29.601562 L 123.339844 29.601562 L 123.339844 37.90625 L 121.621094 37.90625 Z M 121.621094 29.601562 "/>
</g>
<g clip-path="url(#clip3)" clip-rule="nonzero">
<path style="fill-rule:nonzero;fill:rgb(1.568627%,30.588235%,32.54902%);fill-opacity:1;stroke-width:1;stroke-linecap:butt;stroke-linejoin:miter;stroke:rgb(100%,100%,100%);stroke-opacity:1;stroke-miterlimit:4;" d="M -0.00526622 55.233017 C -0.00526622 24.72502 24.721443 -0.003772 55.232457 -0.003772 C 85.731521 -0.003772 110.45823 24.72502 110.45823 55.233017 C 110.45823 85.729074 85.731521 110.457866 55.232457 110.457866 C 24.721443 110.457866 -0.00526622 85.729074 -0.00526622 55.233017 Z M 55.232457 103.866705 C 82.086452 103.866705 103.861254 82.087219 103.861254 55.233017 C 103.861254 28.366875 82.086452 6.599329 55.232457 6.599329 C 28.366511 6.599329 6.59171 28.366875 6.59171 55.233017 C 6.59171 82.087219 28.366511 103.866705 55.232457 103.866705 Z M 55.232457 103.866705 " transform="matrix(0.326854,0,0,0.327143,0.060315,0.930921)"/>
</g>
<g clip-path="url(#clip4)" clip-rule="nonzero">
<path style=" stroke:none;fill-rule:nonzero;fill:rgb(1.568627%,30.588235%,32.54902%);fill-opacity:1;" d="M 9.074219 25.765625 C 9.160156 25.554688 9.402344 25.449219 9.613281 25.535156 C 10.070312 25.71875 10.589844 25.71875 11.042969 25.535156 C 11.699219 25.273438 12.441406 25.273438 13.09375 25.535156 C 13.550781 25.71875 14.070312 25.71875 14.523438 25.535156 C 15.175781 25.273438 15.917969 25.273438 16.574219 25.535156 C 16.785156 25.621094 16.890625 25.863281 16.804688 26.074219 C 16.738281 26.238281 16.582031 26.335938 16.417969 26.335938 C 16.367188 26.335938 16.316406 26.328125 16.265625 26.308594 C 15.808594 26.125 15.289062 26.125 14.832031 26.308594 C 14.503906 26.4375 14.160156 26.503906 13.808594 26.503906 C 13.457031 26.503906 13.109375 26.4375 12.785156 26.308594 C 12.328125 26.125 11.808594 26.125 11.355469 26.308594 C 11.351562 26.308594 11.351562 26.308594 11.351562 26.308594 C 11.027344 26.4375 10.683594 26.503906 10.328125 26.503906 C 9.976562 26.503906 9.632812 26.4375 9.304688 26.308594 C 9.09375 26.222656 8.988281 25.980469 9.074219 25.765625 Z M 16.574219 27.023438 C 15.921875 26.757812 15.179688 26.761719 14.527344 27.019531 C 14.527344 27.023438 14.527344 27.023438 14.523438 27.023438 C 14.070312 27.203125 13.550781 27.203125 13.09375 27.023438 C 12.441406 26.757812 11.699219 26.761719 11.046875 27.019531 C 11.046875 27.023438 11.046875 27.023438 11.042969 27.023438 C 10.589844 27.203125 10.070312 27.207031 9.613281 27.023438 C 9.402344 26.9375 9.160156 27.039062 9.074219 27.253906 C 8.988281 27.46875 9.09375 27.710938 9.304688 27.792969 C 9.632812 27.925781 9.976562 27.992188 10.328125 27.992188 C 10.683594 27.992188 11.027344 27.925781 11.355469 27.792969 C 11.808594 27.613281 12.328125 27.613281 12.785156 27.792969 C 13.113281 27.925781 13.457031 27.992188 13.808594 27.992188 C 14.160156 27.992188 14.507812 27.925781 14.832031 27.792969 C 14.832031 27.792969 14.835938 27.792969 14.835938 27.792969 C 15.289062 27.613281 15.808594 27.613281 16.261719 27.792969 C 16.3125 27.816406 16.367188 27.824219 16.417969 27.824219 C 16.582031 27.824219 16.738281 27.726562 16.804688 27.5625 C 16.890625 27.351562 16.785156 27.109375 16.574219 27.023438 Z M 16.574219 22.5625 C 15.917969 22.296875 15.179688 22.300781 14.523438 22.5625 C 14.070312 22.746094 13.550781 22.746094 13.09375 22.5625 C 12.441406 22.296875 11.699219 22.300781 11.046875 22.5625 C 11.042969 22.5625 11.042969 22.5625 11.042969 22.5625 C 10.589844 22.746094 10.070312 22.746094 9.613281 22.5625 C 9.402344 22.476562 9.160156 22.578125 9.074219 22.792969 C 8.988281 23.003906 9.09375 23.246094 9.304688 23.332031 C 9.632812 23.464844 9.976562 23.53125 10.328125 23.53125 C 10.683594 23.53125 11.027344 23.464844 11.351562 23.335938 C 11.351562 23.332031 11.355469 23.332031 11.355469 23.332031 C 11.808594 23.152344 12.328125 23.152344 12.785156 23.332031 C 13.113281 23.464844 13.457031 23.53125 13.808594 23.53125 C 14.160156 23.53125 14.503906 23.464844 14.832031 23.335938 C 14.832031 23.332031 14.832031 23.332031 14.835938 23.332031 C 15.289062 23.152344 15.808594 23.152344 16.265625 23.332031 C 16.316406 23.355469 16.367188 23.363281 16.417969 23.363281 C 16.582031 23.363281 16.738281 23.265625 16.804688 23.101562 C 16.890625 22.890625 16.785156 22.644531 16.574219 22.5625 Z M 16.574219 24.046875 C 15.917969 23.785156 15.179688 23.785156 14.523438 24.046875 C 14.066406 24.230469 13.550781 24.230469 13.09375 24.046875 C 12.441406 23.785156 11.699219 23.785156 11.046875 24.046875 C 10.589844 24.230469 10.070312 24.230469 9.613281 24.046875 C 9.402344 23.964844 9.160156 24.066406 9.074219 24.28125 C 8.988281 24.492188 9.09375 24.734375 9.304688 24.820312 C 9.632812 24.953125 9.976562 25.019531 10.328125 25.019531 C 10.683594 25.019531 11.027344 24.953125 11.355469 24.820312 C 11.8125 24.636719 12.328125 24.636719 12.785156 24.820312 C 13.113281 24.953125 13.457031 25.019531 13.808594 25.019531 C 14.160156 25.019531 14.507812 24.953125 14.835938 24.820312 C 15.289062 24.636719 15.808594 24.636719 16.265625 24.820312 C 16.316406 24.839844 16.367188 24.851562 16.417969 24.851562 C 16.582031 24.851562 16.738281 24.75 16.804688 24.589844 C 16.890625 24.375 16.785156 24.132812 16.574219 24.046875 Z M 21.894531 17.128906 C 21.894531 17.125 21.894531 17.125 21.894531 17.125 L 21.863281 17.132812 C 21.882812 17.128906 21.894531 17.128906 21.894531 17.128906 Z M 16.890625 10.144531 C 16.746094 10.1875 16.601562 10.238281 16.460938 10.289062 C 16.601562 10.238281 16.746094 10.1875 16.890625 10.144531 Z M 15.019531 10.824219 C 15.160156 10.765625 15.296875 10.710938 15.441406 10.660156 C 15.296875 10.710938 15.160156 10.765625 15.019531 10.824219 Z M 21.914062 15.863281 C 20.800781 15.824219 19.664062 15.96875 18.546875 16.324219 L 22.796875 28.007812 L 21.90625 28.332031 L 17.65625 16.648438 C 16.597656 17.097656 15.65625 17.707031 14.84375 18.4375 C 13.789062 18.335938 12.703125 18.398438 11.617188 18.648438 C 10.53125 18.902344 9.53125 19.320312 8.628906 19.871094 C 8.835938 15.96875 11.25 12.402344 14.984375 10.839844 C 14.984375 10.839844 14.988281 10.839844 14.988281 10.835938 C 15 10.832031 15.007812 10.828125 15.019531 10.824219 C 15.195312 10.75 15.378906 10.683594 15.5625 10.617188 L 15.421875 10.238281 L 16.203125 9.953125 L 16.34375 10.332031 C 16.523438 10.265625 16.707031 10.203125 16.890625 10.144531 C 16.898438 10.140625 16.910156 10.136719 16.921875 10.132812 C 16.921875 10.132812 16.925781 10.132812 16.925781 10.132812 C 20.789062 8.929688 24.929688 10.105469 27.59375 12.960938 C 26.550781 13.121094 25.511719 13.441406 24.519531 13.949219 C 23.527344 14.457031 22.65625 15.105469 21.914062 15.863281 Z M 18.128906 16.464844 C 18.128906 16.464844 18.128906 16.464844 18.125 16.464844 Z M 21.203125 15.386719 C 19.949219 12.503906 18.300781 10.613281 17 10.605469 C 16.699219 10.699219 16.410156 10.808594 16.140625 10.921875 L 16.09375 10.9375 C 15.8125 11.027344 15.523438 11.128906 15.230469 11.25 C 14.390625 11.964844 14.054688 14.171875 15.082031 17.617188 C 15.953125 16.9375 16.917969 16.398438 17.964844 16.019531 C 19.011719 15.636719 20.097656 15.425781 21.203125 15.386719 Z M 21.203125 15.386719 "/>
</g>
</g>
</svg>
