<svg xmlns="http://www.w3.org/2000/svg" version="1.1" xmlns:xlink="http://www.w3.org/1999/xlink" xmlns:svgjs="http://svgjs.dev/svgjs" width="2000" height="429" viewBox="0 0 2000 429"><g transform="matrix(1,0,0,1,-1.2121212121212466,-0.01985146898866219)"><svg viewBox="0 0 396 85" data-background-color="#ffffff" preserveAspectRatio="xMidYMid meet" height="429" width="2000" xmlns="http://www.w3.org/2000/svg" xmlns:xlink="http://www.w3.org/1999/xlink"><g id="tight-bounds" transform="matrix(1,0,0,1,0.2400000000000091,0.0039332747413425295)"><svg viewBox="0 0 395.52 84.99213345051731" height="84.99213345051731" width="395.52"><g><svg viewBox="0 0 540.5002290439202 116.14650990325656" height="84.99213345051731" width="395.52"><g transform="matrix(1,0,0,1,144.98022904392025,0)"><svg viewBox="0 0 395.52 116.14650990325656" height="116.14650990325656" width="395.52"><g><svg viewBox="0 0 395.52 116.14650990325656" height="116.14650990325656" width="395.52"><g><svg viewBox="0 0 395.52 73.1225216929343" height="73.1225216929343" width="395.52"><g transform="matrix(1,0,0,1,0,0)"><svg width="395.52" viewBox="0.35 -51.25 282.32 52.2" height="73.1225216929343" data-palette-color="#044e53"><path d="M5.25 0.35Q4.25 0.35 3.93 0.08 3.6-0.2 3.6-0.85L3.6-0.85Q3.6-2 4.42-6.13 5.25-10.25 6.9-17.75L6.9-17.75Q7.95-22.5 8.8-26.68 9.65-30.85 9.65-31.65L9.65-31.65Q9.65-32.05 8.8-32.05L8.8-32.05Q8.3-32.05 6.4-31.75L6.4-31.75Q3.7-31.3 2.4-31.3L2.4-31.3Q1.25-31.3 0.8-31.58 0.35-31.85 0.35-32.55L0.35-32.55Q0.35-33.2 0.63-34.18 0.9-35.15 1.2-35.6L1.2-35.6Q3-34.9 5.75-34.9L5.75-34.9Q8.1-34.9 12.5-35.35L12.5-35.35Q13.1-35.4 15.65-35.6 18.2-35.8 20.2-35.8L20.2-35.8Q26.1-35.8 29.03-33.7 31.95-31.6 31.95-27.05L31.95-27.05Q31.95-23.25 30.08-20.35 28.2-17.45 25-15.88 21.8-14.3 18-14.3L18-14.3Q15.3-14.3 14.23-15 13.15-15.7 13.15-16.65L13.15-16.65Q13.15-17.1 13.38-17.53 13.6-17.95 13.9-18.2L13.9-18.2Q14.35-17.85 15.45-17.57 16.55-17.3 17.95-17.3L17.95-17.3Q20.8-17.3 22.85-18.5 24.9-19.7 25.98-21.75 27.05-23.8 27.05-26.35L27.05-26.35Q27.05-33 19.6-33L19.6-33Q17.6-33 15.98-32.55 14.35-32.1 14.1-31.1L14.1-31.1Q13.1-26.95 10.88-15.3 8.65-3.65 8.65-1.95L8.65-1.95Q8.65-1.5 8.7-1.03 8.75-0.55 8.75-0.15L8.75-0.15Q6.75 0.35 5.25 0.35L5.25 0.35ZM63.8-12.05Q64.7-12.05 64.7-10.55L64.7-10.55Q64.7-8.15 62.77-5.53 60.85-2.9 58-1.15 55.15 0.6 52.75 0.6L52.75 0.6Q50.85 0.6 49.42-0.5 48-1.6 47.4-3.35L47.4-3.35Q46.05-1.65 44.15-0.63 42.25 0.4 40.75 0.4L40.75 0.4Q39.45 0.4 38.15-0.38 36.85-1.15 35.95-2.35 35.05-3.55 35-4.75L35-4.75Q36.15-9.85 37.05-14.65L37.05-14.65Q37.25-15.65 38.75-17.18 40.25-18.7 42.35-19.8 44.45-20.9 46.35-20.9L46.35-20.9Q48.1-20.9 49.9-19.85L49.9-19.85Q50.25-20.7 50.45-20.93 50.65-21.15 51.05-21.2L51.05-21.2 55.4-21.45 55.55-21.35Q54.95-20.85 54.65-20.25 54.35-19.65 54.1-18.85L54.1-18.85Q53.2-15.8 52.25-11.48 51.3-7.15 51.3-5.5L51.3-5.5Q51.3-4.1 51.97-2.95 52.65-1.8 54.1-1.8L54.1-1.8Q55.6-1.8 57.57-3.1 59.55-4.4 61.27-6.75 63-9.1 63.8-12.05L63.8-12.05ZM42.35-2.6Q43.05-2.6 44.05-3.3 45.05-4 45.92-5.2 46.8-6.4 47.15-7.85L47.15-7.85 47.95-11.6Q48.85-16.2 49.2-17.65L49.2-17.65Q47.9-18.25 46.45-18.25L46.45-18.25Q44.1-18.25 42.92-16.78 41.75-15.3 41.35-13.45L41.35-13.45 39.8-5.9Q39.9-4.65 40.7-3.63 41.5-2.6 42.35-2.6L42.35-2.6ZM83.7-12.5Q84.84-12.5 84.84-10.85L84.84-10.85Q84.84-10 84.55-9.1L84.55-9.1Q83.84-6.9 81.67-4.7 79.5-2.5 76.47-1.07 73.45 0.35 70.25 0.35L70.25 0.35Q66.7 0.35 64.82-1.48 62.95-3.3 62.95-6.5L62.95-6.5Q62.95-9.25 64.22-16.3 65.5-23.35 67.15-30.93 68.8-38.5 69.75-41.9L69.75-41.9Q72.34-51.25 76.9-51.25L76.9-51.25Q79.15-51.25 80.25-49.2 81.34-47.15 81.34-44L81.34-44Q81.34-37.7 77.4-28.93 73.45-20.15 67.95-12.35L67.95-12.35Q67.55-9.15 67.55-7.3L67.55-7.3Q67.55-4.5 68.42-3.45 69.3-2.4 71.15-2.4L71.15-2.4Q73.65-2.4 76.17-3.85 78.7-5.3 80.7-7.63 82.7-9.95 83.7-12.5L83.7-12.5ZM74.25-41.25Q72.8-35.9 71.27-29.38 69.75-22.85 68.75-17.4L68.75-17.4Q72.5-23.95 75.25-31.45 78-38.95 78-43.95L78-43.95Q78-45.5 77.7-46.5 77.4-47.5 76.84-47.5L76.84-47.5Q76.34-47.5 75.82-46.28 75.3-45.05 74.25-41.25L74.25-41.25ZM118.44-12.2Q119.04-12.2 119.39-11.88 119.74-11.55 119.74-10.9L119.74-10.9Q119.74-9.4 118.14-6.7 116.54-4 113.94-1.95 111.34 0.1 108.39 0.1L108.39 0.1Q105.74 0.1 103.82-1.53 101.89-3.15 101.89-5.5L101.89-5.5Q101.89-6.8 102.47-8.85 103.04-10.9 103.94-13.6L103.94-13.6Q104.74-16.2 104.84-16.6L104.84-16.6Q104.84-16.75 104.64-16.88 104.44-17 104.24-17L104.24-17Q103.29-17 100.94-13.73 98.59-10.45 97.39-8.15L97.39-8.15Q96.89-6.55 95.59-0.95L95.59-0.95Q95.39-0.1 95.27 0.2 95.14 0.5 94.89 0.5L94.89 0.5Q94.59 0.5 93.67 0.23 92.74-0.05 92.02-0.45 91.29-0.85 91.29-1.25L91.29-1.25Q91.29-1.9 91.74-3.55L91.74-3.55Q92.89-7.75 93.54-10.33 94.19-12.9 94.94-16.6L94.94-16.6Q94.64-17 94.19-17L94.19-17Q93.44-17 92.02-15.43 90.59-13.85 88.97-11.28 87.34-8.7 86.04-5.9L86.04-5.9Q85.14-2.65 84.54 0.45L84.54 0.45Q83.89 0.45 82.17 0.1 80.44-0.25 80.44-0.65L80.44-0.65Q80.44-1 80.94-2.85L80.94-2.85 81.19-4.15Q81.39-5.15 82.49-10.18 83.59-15.2 84.89-20.1L84.89-20.1Q84.99-20.55 85.14-20.75 85.29-20.95 85.59-20.95L85.59-20.95Q85.99-20.95 87.69-20.63 89.39-20.3 89.54-20.15L89.54-20.15Q88.59-16.05 87.44-11.7L87.44-11.7Q89.04-14.65 90.67-16.55 92.29-18.45 93.62-19.28 94.94-20.1 95.69-20.1L95.69-20.1Q96.34-20.1 97.97-19.48 99.59-18.85 99.59-18.5L99.59-18.5Q99.19-16.1 98.34-12.8L98.34-12.8Q103.59-20.65 105.94-20.65L105.94-20.65Q106.84-20.65 108.34-20.08 109.84-19.5 109.84-18.8L109.84-18.8Q109.29-17.05 109.34-17.15L109.34-17.15Q107.99-12.85 107.27-10.1 106.54-7.35 106.54-5.65L106.54-5.65Q106.54-2.55 109.44-2.55L109.44-2.55Q112.24-2.55 114.74-5.2 117.24-7.85 118.44-12.2L118.44-12.2ZM144.74-12.05Q145.64-12.05 145.64-10.55L145.64-10.55Q145.64-8.15 143.72-5.53 141.79-2.9 138.94-1.15 136.09 0.6 133.69 0.6L133.69 0.6Q131.79 0.6 130.37-0.5 128.94-1.6 128.34-3.35L128.34-3.35Q126.99-1.65 125.09-0.63 123.19 0.4 121.69 0.4L121.69 0.4Q120.39 0.4 119.09-0.38 117.79-1.15 116.89-2.35 115.99-3.55 115.94-4.75L115.94-4.75Q117.09-9.85 117.99-14.65L117.99-14.65Q118.19-15.65 119.69-17.18 121.19-18.7 123.29-19.8 125.39-20.9 127.29-20.9L127.29-20.9Q129.04-20.9 130.84-19.85L130.84-19.85Q131.19-20.7 131.39-20.93 131.59-21.15 131.99-21.2L131.99-21.2 136.34-21.45 136.49-21.35Q135.89-20.85 135.59-20.25 135.29-19.65 135.04-18.85L135.04-18.85Q134.14-15.8 133.19-11.48 132.24-7.15 132.24-5.5L132.24-5.5Q132.24-4.1 132.91-2.95 133.59-1.8 135.04-1.8L135.04-1.8Q136.54-1.8 138.51-3.1 140.49-4.4 142.22-6.75 143.94-9.1 144.74-12.05L144.74-12.05ZM123.29-2.6Q123.99-2.6 124.99-3.3 125.99-4 126.86-5.2 127.74-6.4 128.09-7.85L128.09-7.85 128.89-11.6Q129.79-16.2 130.14-17.65L130.14-17.65Q128.84-18.25 127.39-18.25L127.39-18.25Q125.04-18.25 123.86-16.78 122.69-15.3 122.29-13.45L122.29-13.45 120.74-5.9Q120.84-4.65 121.64-3.63 122.44-2.6 123.29-2.6L123.29-2.6ZM166.44-17.85Q166.84-17.6 166.84-17.2L166.84-17.2Q166.84-16.1 165.94-15 165.04-13.9 163.44-13.2 161.84-12.5 159.94-12.5L159.94-12.5Q157.29-12.5 155.69-13.85 154.09-15.2 153.99-17.3L153.99-17.3Q151.79-17.1 150.11-15.5 148.44-13.9 147.59-11.6L147.59-11.6 147.59-11.5 147.59-11.5Q147.39-11 147.34-10.75L147.34-10.75Q146.89-9.15 145.39-0.5L145.39-0.5Q145.34 0 143.24 0L143.24 0Q141.24 0 141.24-0.7L141.24-0.7Q141.24-1.1 141.54-2.75L141.54-2.75Q142.44-7.8 143.49-13.25 144.54-18.7 144.79-19.55L144.79-19.55Q144.99-20.3 145.51-20.55 146.04-20.8 146.94-20.8L146.94-20.8Q148.64-20.8 149.84-20.3L149.84-20.3Q149.44-19.15 148.74-16.2L148.74-16.2Q150.14-18.2 151.91-19.4 153.69-20.6 155.54-20.6L155.54-20.6Q156.39-20.6 156.99-20.38 157.59-20.15 157.74-19.85L157.74-19.85Q157.74-14.75 161.49-14.75L161.49-14.75Q164.49-14.75 166.44-17.85L166.44-17.85ZM185.69-11.45Q186.53-11.05 186.53-10.3L186.53-10.3Q186.53-8.05 183.91-5.58 181.28-3.1 177.41-1.43 173.53 0.25 170.24 0.25L170.24 0.25Q167.53 0.25 165.63-0.85 163.74-1.95 162.76-3.33 161.78-4.7 161.78-5.35L161.78-5.35Q162.13-6.65 162.46-8.45 162.78-10.25 162.94-10.95L162.94-10.95Q163.09-11.85 163.31-13.08 163.53-14.3 163.88-15.9L163.88-15.9Q164.09-16.9 165.63-18.13 167.19-19.35 169.16-20.18 171.13-21 172.44-21L172.44-21Q173.53-21 175.06-20.4 176.59-19.8 177.69-18.73 178.78-17.65 178.78-16.2L178.78-16.2Q178.78-14.35 176.96-12.6 175.13-10.85 172.34-9.73 169.53-8.6 166.84-8.5L166.84-8.5 166.44-6.4Q166.59-4.85 167.88-3.73 169.19-2.6 171.78-2.6L171.78-2.6Q174.28-2.6 177.01-3.75 179.74-4.9 182.06-6.93 184.38-8.95 185.69-11.45L185.69-11.45ZM171.99-18.9Q170.74-18.9 169.56-17.7 168.38-16.5 168.09-15.3L168.09-15.3 167.24-10.75Q170.24-10.95 172.34-12.5 174.44-14.05 174.44-16.15L174.44-16.15Q174.44-17.4 173.71-18.15 172.99-18.9 171.99-18.9L171.99-18.9ZM187.98 0.65Q186.13 0.65 184.58 0 183.03-0.65 182.13-1.68 181.23-2.7 181.23-3.8L181.23-3.8Q181.23-4.8 181.93-5.38 182.63-5.95 183.53-6.05L183.53-6.05Q184.13-4.05 185.33-2.9 186.53-1.75 188.28-1.75L188.28-1.75Q190.08-1.75 191.23-2.88 192.38-4 192.38-5.5L192.38-5.5Q192.38-6.75 191.63-7.68 190.88-8.6 189.23-9.9L189.23-9.9Q187.53-11.25 186.68-12.3 185.83-13.35 185.83-14.8L185.83-14.8Q185.83-16.4 186.91-17.8 187.98-19.2 189.66-20.03 191.33-20.85 192.98-20.85L192.98-20.85Q194.83-20.85 196.53-19.98 198.23-19.1 198.23-17.95L198.23-17.95Q198.23-17.4 197.83-16.85 197.43-16.3 196.63-15.95L196.63-15.95Q195.93-17.15 195.16-17.75 194.38-18.35 193.28-18.35L193.28-18.35Q192.08-18.35 191.18-17.68 190.28-17 190.28-15.8L190.28-15.8Q190.28-14.75 191.03-13.88 191.78-13 193.33-11.75L193.33-11.75Q195.18-10.25 196.11-9.13 197.03-8 197.03-6.45L197.03-6.45Q197.03-4.7 195.76-3.05 194.48-1.4 192.41-0.38 190.33 0.65 187.98 0.65L187.98 0.65ZM227.28-4.05Q232.63-4.05 232.63-2.5L232.63-2.5Q232.63-2.05 232.28-1 231.93 0.05 231.63 0.4L231.63 0.4Q229.63-0.3 223.83-0.3L223.83-0.3Q219.78-0.3 215.43 0.15L215.43 0.15 214.23 0.25Q213.83-0.1 213.53-0.8 213.23-1.5 213.23-1.9L213.23-1.9Q213.23-2.4 214.33-3.4L214.33-3.4Q217.08-5.9 218.65-7.55 220.23-9.2 225.48-15L225.48-15Q227.73-17.45 228.95-19.53 230.18-21.6 230.18-23.8L230.18-23.8Q230.18-25.65 229.18-26.7 228.18-27.75 226.23-27.75L226.23-27.75Q221.98-27.75 219.63-22.35L219.63-22.35Q218.88-22.45 218.53-22.9 218.18-23.35 218.18-24.25L218.18-24.25Q218.18-26.05 219.4-27.65 220.63-29.25 222.75-30.23 224.88-31.2 227.43-31.2L227.43-31.2Q231.08-31.2 233.2-29.2 235.33-27.2 235.33-24.1L235.33-24.1Q235.33-22.1 234.4-20.28 233.48-18.45 232.18-17.03 230.88-15.6 228.73-13.6L228.73-13.6 217.58-3.1Q220.53-3.55 222.78-3.8 225.03-4.05 227.28-4.05L227.28-4.05ZM246.08 0.75Q242.38 0.75 240.18-2.18 237.98-5.1 237.98-9.95L237.98-9.95Q237.98-14.55 239.93-19.45 241.88-24.35 245.25-27.6 248.63-30.85 252.63-30.85L252.63-30.85Q253.08-30.85 253.58-31.05 254.08-31.25 254.63-31.25L254.63-31.25Q257.28-31.25 258.8-28.3 260.33-25.35 260.33-20.95L260.33-20.95Q260.33-16.05 258.45-10.98 256.58-5.9 253.3-2.58 250.03 0.75 246.08 0.75L246.08 0.75ZM246.53-2.1Q249.48-2.1 251.58-5.3 253.68-8.5 254.75-13.33 255.83-18.15 255.83-22.8L255.83-22.8Q255.83-26.05 255.15-27.53 254.48-29 252.83-29L252.83-29Q249.73-29 247.43-25.88 245.13-22.75 243.9-18.07 242.68-13.4 242.68-9L242.68-9Q242.68-5.65 243.55-3.88 244.43-2.1 246.53-2.1L246.53-2.1ZM275.77-16.3Q278.22-15.9 279.97-14.28 281.72-12.65 281.72-9.45L281.72-9.45Q281.72-6.3 279.95-3.95 278.17-1.6 275.27-0.33 272.37 0.95 269.02 0.95L269.02 0.95Q265.52 0.95 263.4-0.4 261.27-1.75 261.27-3.65L261.27-3.65Q261.27-4.45 261.62-4.9 261.97-5.35 262.42-5.35L262.42-5.35Q263.32-3.9 265.12-3.03 266.92-2.15 269.12-2.15L269.12-2.15Q271.37-2.15 273.1-3.1 274.82-4.05 275.75-5.68 276.67-7.3 276.67-9.3L276.67-9.3Q276.67-14.5 269.67-14.5L269.67-14.5Q269.32-14.5 269.05-15.13 268.77-15.75 268.77-16.55L268.77-16.55Q268.77-17.7 269.42-17.7L269.42-17.7Q271.77-17.7 273.75-18.65 275.72-19.6 276.85-21.25 277.97-22.9 277.97-24.9L277.97-24.9Q277.97-26.7 276.97-27.53 275.97-28.35 273.82-28.35L273.82-28.35Q271.72-28.35 270-27.58 268.27-26.8 266.52-25.15L266.52-25.15Q266.22-25.2 266.02-25.55 265.82-25.9 265.82-26.3L265.82-26.3Q265.82-27.25 267.02-28.38 268.22-29.5 270.27-30.3 272.32-31.1 274.72-31.1L274.72-31.1Q278.37-31.1 280.52-29.25 282.67-27.4 282.67-24.5L282.67-24.5Q282.67-21.65 280.65-19.35 278.62-17.05 275.77-16.3L275.77-16.3Z" opacity="1" transform="matrix(1,0,0,1,0,0)" fill="#044e53" class="undefined-text-0" data-fill-palette-color="primary" id="text-0"></path></svg></g></svg></g><g transform="matrix(1,0,0,1,0,90.38499412411545)"><svg viewBox="0 0 232.209792 25.7615157791411" height="25.7615157791411" width="232.209792"><g transform="matrix(1,0,0,1,0,0)"><svg width="232.209792" viewBox="0.25 -37.58 342.27 37.98" height="25.7615157791411" data-palette-color="#044e53"><path d="M27.4-25.93L17.35 0 10.3 0 0.25-25.93 6.7-25.93Q7.53-25.93 8.09-25.54 8.65-25.15 8.85-24.58L8.85-24.58 12.45-12.95Q12.88-11.53 13.26-10.18 13.65-8.83 13.93-7.48L13.93-7.48Q14.2-8.83 14.6-10.18 15-11.53 15.45-12.95L15.45-12.95 19.2-24.58Q19.4-25.15 19.95-25.54 20.5-25.93 21.25-25.93L21.25-25.93 27.4-25.93ZM52.1 0L48.55 0Q47.45 0 46.89-0.3 46.32-0.6 45.95-1.55L45.95-1.55 45.4-2.98Q44.42-2.15 43.52-1.53 42.62-0.9 41.66-0.46 40.7-0.03 39.61 0.19 38.52 0.4 37.2 0.4L37.2 0.4Q35.42 0.4 33.97-0.06 32.52-0.53 31.51-1.43 30.5-2.33 29.95-3.66 29.4-5 29.4-6.75L29.4-6.75Q29.4-8.13 30.1-9.58 30.8-11.03 32.52-12.21 34.25-13.4 37.17-14.2 40.1-15 44.55-15.1L44.55-15.1 44.55-16.2Q44.55-18.48 43.61-19.49 42.67-20.5 40.95-20.5L40.95-20.5Q39.57-20.5 38.7-20.2 37.82-19.9 37.14-19.53 36.45-19.15 35.8-18.85 35.15-18.55 34.25-18.55L34.25-18.55Q33.45-18.55 32.89-18.94 32.32-19.33 32-19.9L32-19.9 30.6-22.33Q32.95-24.4 35.81-25.41 38.67-26.43 41.95-26.43L41.95-26.43Q44.3-26.43 46.19-25.66 48.07-24.9 49.39-23.54 50.7-22.18 51.4-20.3 52.1-18.43 52.1-16.2L52.1-16.2 52.1 0ZM39.65-4.73L39.65-4.73Q41.15-4.73 42.27-5.25 43.4-5.78 44.55-6.95L44.55-6.95 44.55-10.55Q42.22-10.45 40.72-10.15 39.22-9.85 38.35-9.4 37.47-8.95 37.14-8.38 36.8-7.8 36.8-7.13L36.8-7.13Q36.8-5.8 37.52-5.26 38.25-4.73 39.65-4.73ZM78.34-22.5L76.3-19.78Q75.95-19.35 75.62-19.1 75.3-18.85 74.7-18.85L74.7-18.85Q74.12-18.85 73.66-19.13 73.2-19.4 72.62-19.74 72.05-20.08 71.27-20.35 70.5-20.63 69.34-20.63L69.34-20.63Q67.92-20.63 66.88-20.1 65.84-19.58 65.17-18.6 64.5-17.63 64.17-16.21 63.85-14.8 63.85-13.03L63.85-13.03Q63.85-9.3 65.28-7.3 66.72-5.3 69.25-5.3L69.25-5.3Q70.59-5.3 71.38-5.64 72.17-5.98 72.72-6.39 73.27-6.8 73.73-7.15 74.2-7.5 74.9-7.5L74.9-7.5Q75.82-7.5 76.3-6.83L76.3-6.83 78.55-4.05Q77.34-2.68 76.02-1.81 74.7-0.95 73.31-0.46 71.92 0.03 70.52 0.21 69.12 0.4 67.8 0.4L67.8 0.4Q65.42 0.4 63.26-0.5 61.1-1.4 59.46-3.11 57.82-4.83 56.86-7.33 55.9-9.83 55.9-13.03L55.9-13.03Q55.9-15.83 56.73-18.26 57.57-20.7 59.21-22.49 60.85-24.28 63.26-25.3 65.67-26.33 68.84-26.33L68.84-26.33Q71.9-26.33 74.2-25.35 76.5-24.38 78.34-22.5L78.34-22.5ZM103.34 0L99.79 0Q98.69 0 98.13-0.3 97.57-0.6 97.19-1.55L97.19-1.55 96.64-2.98Q95.67-2.15 94.77-1.53 93.87-0.9 92.91-0.46 91.94-0.03 90.86 0.19 89.77 0.4 88.44 0.4L88.44 0.4Q86.67 0.4 85.22-0.06 83.77-0.53 82.76-1.43 81.74-2.33 81.19-3.66 80.64-5 80.64-6.75L80.64-6.75Q80.64-8.13 81.34-9.58 82.04-11.03 83.77-12.21 85.49-13.4 88.42-14.2 91.34-15 95.79-15.1L95.79-15.1 95.79-16.2Q95.79-18.48 94.86-19.49 93.92-20.5 92.19-20.5L92.19-20.5Q90.82-20.5 89.94-20.2 89.07-19.9 88.38-19.53 87.69-19.15 87.04-18.85 86.39-18.55 85.49-18.55L85.49-18.55Q84.69-18.55 84.13-18.94 83.57-19.33 83.24-19.9L83.24-19.9 81.84-22.33Q84.19-24.4 87.06-25.41 89.92-26.43 93.19-26.43L93.19-26.43Q95.54-26.43 97.43-25.66 99.32-24.9 100.63-23.54 101.94-22.18 102.64-20.3 103.34-18.43 103.34-16.2L103.34-16.2 103.34 0ZM90.89-4.73L90.89-4.73Q92.39-4.73 93.52-5.25 94.64-5.78 95.79-6.95L95.79-6.95 95.79-10.55Q93.47-10.45 91.97-10.15 90.47-9.85 89.59-9.4 88.72-8.95 88.38-8.38 88.04-7.8 88.04-7.13L88.04-7.13Q88.04-5.8 88.77-5.26 89.49-4.73 90.89-4.73ZM117.94 0.4L117.94 0.4Q116.09 0.4 114.68-0.14 113.27-0.68 112.3-1.66 111.34-2.65 110.84-4.05 110.34-5.45 110.34-7.18L110.34-7.18 110.34-20.58 108.14-20.58Q107.54-20.58 107.12-20.96 106.69-21.35 106.69-22.1L106.69-22.1 106.69-25.13 110.82-25.93 112.34-32.25Q112.64-33.45 114.04-33.45L114.04-33.45 118.09-33.45 118.09-25.88 124.39-25.88 124.39-20.58 118.09-20.58 118.09-7.7Q118.09-6.8 118.53-6.21 118.97-5.63 119.79-5.63L119.79-5.63Q120.22-5.63 120.5-5.71 120.79-5.8 121-5.91 121.22-6.03 121.4-6.11 121.59-6.2 121.84-6.2L121.84-6.2Q122.19-6.2 122.4-6.04 122.62-5.88 122.84-5.53L122.84-5.53 125.19-1.85Q123.69-0.73 121.82-0.16 119.94 0.4 117.94 0.4ZM129.09-25.93L136.84-25.93 136.84 0 129.09 0 129.09-25.93ZM137.74-33.02L137.74-33.02Q137.74-32.1 137.36-31.29 136.99-30.48 136.34-29.86 135.69-29.25 134.83-28.89 133.96-28.53 132.99-28.53L132.99-28.53Q132.04-28.53 131.21-28.89 130.39-29.25 129.75-29.86 129.11-30.48 128.75-31.29 128.39-32.1 128.39-33.02L128.39-33.02Q128.39-33.98 128.75-34.8 129.11-35.63 129.75-36.25 130.39-36.88 131.21-37.23 132.04-37.58 132.99-37.58L132.99-37.58Q133.96-37.58 134.83-37.23 135.69-36.88 136.34-36.25 136.99-35.63 137.36-34.8 137.74-33.98 137.74-33.02ZM154.64-26.33L154.64-26.33Q157.59-26.33 160.01-25.4 162.44-24.48 164.17-22.75 165.91-21.03 166.87-18.56 167.84-16.1 167.84-13.03L167.84-13.03Q167.84-9.93 166.87-7.44 165.91-4.95 164.17-3.21 162.44-1.48 160.01-0.54 157.59 0.4 154.64 0.4L154.64 0.4Q151.66 0.4 149.22-0.54 146.79-1.48 145.02-3.21 143.26-4.95 142.3-7.44 141.34-9.93 141.34-13.03L141.34-13.03Q141.34-16.1 142.3-18.56 143.26-21.03 145.02-22.75 146.79-24.48 149.22-25.4 151.66-26.33 154.64-26.33ZM154.64-5.35L154.64-5.35Q157.31-5.35 158.57-7.24 159.84-9.13 159.84-12.98L159.84-12.98Q159.84-16.82 158.57-18.7 157.31-20.58 154.64-20.58L154.64-20.58Q151.89-20.58 150.61-18.7 149.34-16.82 149.34-12.98L149.34-12.98Q149.34-9.13 150.61-7.24 151.89-5.35 154.64-5.35ZM179.83 0L172.08 0 172.08-25.93 176.88-25.93Q177.61-25.93 178.1-25.6 178.58-25.28 178.78-24.63L178.78-24.63 179.23-23.13Q179.98-23.83 180.78-24.43 181.58-25.03 182.5-25.44 183.41-25.85 184.47-26.09 185.53-26.33 186.78-26.33L186.78-26.33Q188.91-26.33 190.55-25.59 192.18-24.85 193.31-23.54 194.43-22.23 195.01-20.41 195.58-18.6 195.58-16.48L195.58-16.48 195.58 0 187.83 0 187.83-16.48Q187.83-18.38 186.96-19.44 186.08-20.5 184.38-20.5L184.38-20.5Q183.11-20.5 181.98-19.95 180.86-19.4 179.83-18.48L179.83-18.48 179.83 0ZM218.48 0L210.73 0 210.73-25.93 215.33-25.93Q215.9-25.93 216.29-25.83 216.68-25.73 216.94-25.51 217.2-25.3 217.34-24.95 217.48-24.6 217.58-24.1L217.58-24.1 218-21.68Q219.43-23.88 221.2-25.15 222.98-26.43 225.08-26.43L225.08-26.43Q226.85-26.43 227.93-25.58L227.93-25.58 226.93-19.88Q226.83-19.35 226.53-19.14 226.23-18.93 225.73-18.93L225.73-18.93Q225.3-18.93 224.73-19.04 224.15-19.15 223.28-19.15L223.28-19.15Q220.23-19.15 218.48-15.9L218.48-15.9 218.48 0ZM242.48-26.33L242.48-26.33Q245.05-26.33 247.19-25.53 249.33-24.73 250.86-23.2 252.4-21.68 253.26-19.46 254.13-17.25 254.13-14.45L254.13-14.45Q254.13-13.58 254.05-13.03 253.98-12.48 253.78-12.15 253.58-11.83 253.24-11.7 252.9-11.58 252.38-11.58L252.38-11.58 237.43-11.58Q237.8-8.33 239.4-6.86 241-5.4 243.53-5.4L243.53-5.4Q244.88-5.4 245.85-5.73 246.83-6.05 247.59-6.45 248.35-6.85 248.99-7.18 249.63-7.5 250.33-7.5L250.33-7.5Q251.25-7.5 251.73-6.83L251.73-6.83 253.98-4.05Q252.78-2.68 251.39-1.81 250-0.95 248.54-0.46 247.08 0.03 245.61 0.21 244.15 0.4 242.83 0.4L242.83 0.4Q240.1 0.4 237.71-0.49 235.33-1.38 233.54-3.13 231.75-4.88 230.71-7.48 229.68-10.08 229.68-13.53L229.68-13.53Q229.68-16.13 230.56-18.45 231.45-20.78 233.11-22.53 234.78-24.28 237.14-25.3 239.5-26.33 242.48-26.33ZM242.63-20.98L242.63-20.98Q240.4-20.98 239.15-19.71 237.9-18.45 237.5-16.07L237.5-16.07 247.18-16.07Q247.18-17 246.94-17.88 246.7-18.75 246.16-19.44 245.63-20.13 244.75-20.55 243.88-20.98 242.63-20.98ZM266.32 0L258.57 0 258.57-25.93 263.37-25.93Q264.1-25.93 264.59-25.6 265.07-25.28 265.27-24.63L265.27-24.63 265.72-23.13Q266.47-23.83 267.27-24.43 268.07-25.03 268.99-25.44 269.9-25.85 270.96-26.09 272.02-26.33 273.27-26.33L273.27-26.33Q275.4-26.33 277.04-25.59 278.67-24.85 279.8-23.54 280.92-22.23 281.5-20.41 282.07-18.6 282.07-16.48L282.07-16.48 282.07 0 274.32 0 274.32-16.48Q274.32-18.38 273.45-19.44 272.57-20.5 270.87-20.5L270.87-20.5Q269.6-20.5 268.47-19.95 267.35-19.4 266.32-18.48L266.32-18.48 266.32 0ZM296.67 0.4L296.67 0.4Q294.82 0.4 293.41-0.14 292-0.68 291.03-1.66 290.07-2.65 289.57-4.05 289.07-5.45 289.07-7.18L289.07-7.18 289.07-20.58 286.87-20.58Q286.27-20.58 285.85-20.96 285.42-21.35 285.42-22.1L285.42-22.1 285.42-25.13 289.55-25.93 291.07-32.25Q291.37-33.45 292.77-33.45L292.77-33.45 296.82-33.45 296.82-25.88 303.12-25.88 303.12-20.58 296.82-20.58 296.82-7.7Q296.82-6.8 297.26-6.21 297.7-5.63 298.52-5.63L298.52-5.63Q298.95-5.63 299.23-5.71 299.52-5.8 299.73-5.91 299.95-6.03 300.13-6.11 300.32-6.2 300.57-6.2L300.57-6.2Q300.92-6.2 301.13-6.04 301.35-5.88 301.57-5.53L301.57-5.53 303.92-1.85Q302.42-0.73 300.55-0.16 298.67 0.4 296.67 0.4ZM329.02 0L325.47 0Q324.37 0 323.81-0.3 323.24-0.6 322.87-1.55L322.87-1.55 322.32-2.98Q321.34-2.15 320.44-1.53 319.54-0.9 318.58-0.46 317.62-0.03 316.53 0.19 315.44 0.4 314.12 0.4L314.12 0.4Q312.34 0.4 310.89-0.06 309.44-0.53 308.43-1.43 307.42-2.33 306.87-3.66 306.32-5 306.32-6.75L306.32-6.75Q306.32-8.13 307.02-9.58 307.72-11.03 309.44-12.21 311.17-13.4 314.09-14.2 317.02-15 321.47-15.1L321.47-15.1 321.47-16.2Q321.47-18.48 320.53-19.49 319.59-20.5 317.87-20.5L317.87-20.5Q316.49-20.5 315.62-20.2 314.74-19.9 314.06-19.53 313.37-19.15 312.72-18.85 312.07-18.55 311.17-18.55L311.17-18.55Q310.37-18.55 309.81-18.94 309.24-19.33 308.92-19.9L308.92-19.9 307.52-22.33Q309.87-24.4 312.73-25.41 315.59-26.43 318.87-26.43L318.87-26.43Q321.22-26.43 323.11-25.66 324.99-24.9 326.31-23.54 327.62-22.18 328.32-20.3 329.02-18.43 329.02-16.2L329.02-16.2 329.02 0ZM316.57-4.73L316.57-4.73Q318.07-4.73 319.19-5.25 320.32-5.78 321.47-6.95L321.47-6.95 321.47-10.55Q319.14-10.45 317.64-10.15 316.14-9.85 315.27-9.4 314.39-8.95 314.06-8.38 313.72-7.8 313.72-7.13L313.72-7.13Q313.72-5.8 314.44-5.26 315.17-4.73 316.57-4.73ZM334.77-37.43L342.52-37.43 342.52 0 334.77 0 334.77-37.43Z" opacity="1" transform="matrix(1,0,0,1,0,0)" fill="#044e53" class="undefined-text-1" data-fill-palette-color="secondary" id="text-1"></path></svg></g></svg></g></svg></g></svg></g><g transform="matrix(1,0,0,1,0,2.8456128608493145)"><svg viewBox="0 0 110.45528418155793 110.45528418155793" height="110.45528418155793" width="110.45528418155793"><g><svg></svg></g><g id="icon-0"><svg viewBox="0 0 110.45528418155793 110.45528418155793" height="110.45528418155793" width="110.45528418155793"><g><path d="M0 55.228c0-30.501 24.726-55.228 55.228-55.228 30.501 0 55.228 24.726 55.227 55.228 0 30.501-24.726 55.228-55.227 55.227-30.501 0-55.228-24.726-55.228-55.227zM55.228 103.861c26.859 0 48.633-21.774 48.633-48.633 0-26.859-21.774-48.633-48.633-48.634-26.859 0-48.633 21.774-48.634 48.634 0 26.859 21.774 48.633 48.634 48.633z" data-fill-palette-color="accent" fill="#044e53" stroke="transparent"></path></g><g transform="matrix(1,0,0,1,26.21392758499575,26.69597553700916)"><svg viewBox="0 0 58.027429011566426 57.063333107539606" height="57.063333107539606" width="58.027429011566426"><g><svg xmlns="http://www.w3.org/2000/svg" xmlns:xlink="http://www.w3.org/1999/xlink" version="1.1" x="0" y="0" viewBox="8.333000000000002 9.383568186642565 83.33500000000001 81.95043181335744" enable-background="new 0 0 100 100" xml:space="preserve" height="57.063333107539606" width="58.027429011566426" class="icon-ju-0" data-fill-palette-color="accent" id="ju-0"><path d="M10.292 80.069c0.376-0.936 1.441-1.39 2.375-1.014 2.001 0.804 4.28 0.803 6.28 0.001 0.001-0.001 0.002-0.002 0.003-0.002 2.87-1.15 6.128-1.15 9-0.001 0.001 0.001 0.002 0.001 0.003 0.001 2.004 0.806 4.282 0.804 6.281 0.002 0.001-0.001 0.002-0.002 0.003-0.002 2.871-1.15 6.13-1.15 9.003 0 0.936 0.375 1.391 1.438 1.016 2.375-0.286 0.713-0.972 1.147-1.696 1.147-0.226 0-0.456-0.043-0.679-0.132-2.004-0.802-4.28-0.802-6.284 0-0.003 0.001-0.007 0.002-0.01 0.003-1.432 0.574-2.943 0.865-4.492 0.865-1.551 0-3.066-0.292-4.502-0.868 0 0 0 0-0.001 0-2.003-0.802-4.279-0.802-6.283 0-0.003 0.001-0.007 0.002-0.01 0.003-1.432 0.574-2.943 0.865-4.492 0.865-1.552 0-3.066-0.292-4.502-0.869C10.371 82.068 9.917 81.005 10.292 80.069zM43.243 85.584c-2.868-1.153-6.125-1.152-8.993-0.004-0.003 0.001-0.007 0.002-0.011 0.003-2.003 0.803-4.279 0.803-6.286 0-0.002-0.001-0.005-0.001-0.008-0.002-2.866-1.15-6.119-1.148-8.984-0.001-0.003 0.001-0.007 0.002-0.011 0.003-2.003 0.803-4.279 0.804-6.284 0-0.937-0.373-2 0.08-2.375 1.016-0.375 0.937 0.08 2 1.016 2.375 1.436 0.575 2.951 0.867 4.501 0.867 1.551 0 3.066-0.292 4.502-0.867 0.001-0.001 0.002-0.001 0.003-0.002 2-0.802 4.279-0.802 6.279 0.001 0.001 0 0.001 0.001 0.002 0.001 1.437 0.575 2.952 0.867 4.501 0.867 1.551 0 3.066-0.292 4.502-0.867 0.001-0.001 0.002-0.001 0.003-0.002 2-0.802 4.28-0.802 6.28 0.001 0.223 0.09 0.454 0.133 0.68 0.133 0.724 0 1.409-0.434 1.695-1.146C44.633 87.023 44.179 85.96 43.243 85.584zM43.242 65.999c-2.873-1.151-6.132-1.149-9.003 0C34.238 66 34.237 66 34.236 66.001c-1.999 0.802-4.277 0.804-6.281-0.002-0.001 0-0.002 0-0.003-0.001-2.873-1.15-6.13-1.148-9 0.001C18.95 66 18.949 66 18.948 66.001c-2 0.802-4.279 0.803-6.28-0.001-0.934-0.375-2 0.078-2.375 1.014s0.078 1.999 1.014 2.375c1.436 0.577 2.95 0.869 4.502 0.869 1.548 0 3.06-0.291 4.492-0.865 0.003-0.001 0.007-0.002 0.01-0.003 2.003-0.802 4.279-0.802 6.283-0.001 0 0.001 0 0.001 0.001 0.001 1.437 0.576 2.951 0.868 4.502 0.868 1.548 0 3.06-0.291 4.492-0.865 0.003-0.001 0.007-0.002 0.01-0.003 2.004-0.802 4.28-0.802 6.284 0 0.223 0.089 0.453 0.132 0.679 0.132 0.724 0 1.41-0.435 1.696-1.147C44.633 67.438 44.178 66.374 43.242 65.999zM43.242 72.527c-2.875-1.151-6.127-1.151-9.003 0-2.005 0.805-4.275 0.805-6.284 0 0 0 0 0-0.001 0-2.876-1.151-6.127-1.151-9.003 0-2.006 0.805-4.277 0.805-6.284 0-0.937-0.372-2 0.08-2.375 1.016-0.375 0.937 0.08 2 1.016 2.375 1.438 0.576 2.952 0.868 4.501 0.868 1.549 0 3.064-0.292 4.502-0.868 2.006-0.804 4.277-0.806 6.284 0 0.001 0 0.002 0 0.003 0.001 1.438 0.575 2.952 0.867 4.499 0.867 1.549 0 3.064-0.292 4.502-0.868 2.006-0.804 4.276-0.806 6.284 0 0.223 0.089 0.453 0.132 0.679 0.132 0.724 0 1.41-0.435 1.696-1.147C44.633 73.966 44.178 72.902 43.242 72.527zM66.624 42.145c-0.003-0.005-0.005-0.011-0.008-0.017l-0.132 0.041C66.573 42.153 66.624 42.145 66.624 42.145zM44.628 11.488c-0.629 0.198-1.257 0.407-1.882 0.634C43.372 11.897 43.999 11.687 44.628 11.488zM36.417 14.477c0.608-0.252 1.223-0.493 1.846-0.723C37.639 13.981 37.025 14.225 36.417 14.477zM66.7 36.588c-4.891-0.165-9.881 0.48-14.786 2.027l18.67 51.293-3.916 1.426L48.002 40.049c-4.646 1.958-8.792 4.636-12.365 7.846 0 0-0.001 0-0.001-0.001 0 0 0 0 0 0.001-4.624-0.44-9.396-0.168-14.17 0.934-4.771 1.102-9.173 2.946-13.133 5.366C9.25 37.055 19.858 21.41 36.26 14.544c0.005-0.004 0.01-0.008 0.014-0.012 0.047-0.02 0.096-0.036 0.143-0.056l0 0c0.778-0.323 1.572-0.622 2.375-0.906l-0.609-1.673 3.432-1.249 0.609 1.673c0.799-0.299 1.6-0.58 2.405-0.833 0 0 0 0 0 0 0.047-0.015 0.094-0.033 0.142-0.048 0.006 0 0.012 0 0.017 0 16.979-5.284 35.162-0.117 46.88 12.422-4.588 0.692-9.146 2.11-13.509 4.332-4.366 2.225-8.196 5.083-11.455 8.394C66.702 36.588 66.701 36.588 66.7 36.588zM50.083 39.231c-0.003 0.001-0.006 0.002-0.009 0.003s-0.005 0.002-0.008 0.003L50.083 39.231zM63.586 34.507c-5.508-12.653-12.753-20.966-18.476-20.99-1.31 0.417-2.579 0.885-3.776 1.391l-0.2 0.073c-1.242 0.381-2.514 0.839-3.785 1.361-3.695 3.14-5.169 12.831-0.664 27.956 3.826-2.991 8.077-5.348 12.676-7.021C53.951 35.605 58.729 34.676 63.586 34.507z" fill="#044e53" data-fill-palette-color="accent"></path></svg></g></svg></g></svg></g></svg></g></svg></g><defs></defs></svg><rect width="395.52" height="84.99213345051731" fill="none" stroke="none" visibility="hidden"></rect></g></svg></g></svg>